%FSLAX25Y25*%
%MOIN*%
G04 EasyPC Gerber Version 17.0 Build 3379 *
%ADD105R,0.06506X0.06506*%
%ADD100C,0.06506*%
X0Y0D02*
D02*
D100*
X12353Y95407D03*
X22353Y79659D03*
Y95407D03*
Y105407D03*
Y121156D03*
Y136904D03*
Y183715D03*
X32353Y59974D03*
Y79659D03*
Y95407D03*
Y105407D03*
Y121156D03*
Y136904D03*
Y183715D03*
X42353D03*
X59833Y6904D03*
Y16904D03*
Y26904D03*
Y36904D03*
Y46904D03*
Y56904D03*
Y66904D03*
Y76904D03*
Y86904D03*
Y96904D03*
Y106904D03*
Y116904D03*
Y126904D03*
Y136904D03*
X69833Y6904D03*
X79833D03*
X89833D03*
X99833D03*
X109833D03*
Y86904D03*
Y96904D03*
Y106904D03*
Y126904D03*
X119833Y6904D03*
Y16904D03*
Y26904D03*
Y36904D03*
Y46904D03*
Y56904D03*
Y66904D03*
Y76904D03*
Y86904D03*
Y96904D03*
Y106904D03*
Y116904D03*
Y126904D03*
Y136904D03*
X155188Y174659D03*
X181093Y78872D03*
Y88872D03*
Y98872D03*
Y124629D03*
Y134629D03*
Y144629D03*
Y154629D03*
Y164629D03*
Y174629D03*
X191093Y78872D03*
Y88872D03*
Y98872D03*
Y108872D03*
Y124629D03*
Y134629D03*
Y144629D03*
Y154629D03*
Y164629D03*
Y174629D03*
D02*
D105*
X12353Y79659D03*
Y105407D03*
Y121156D03*
Y136904D03*
Y183715D03*
X22353Y59974D03*
X155188Y184659D03*
X171093Y124629D03*
Y134629D03*
Y144629D03*
Y154629D03*
Y164629D03*
Y174629D03*
X181093Y108872D03*
X0Y0D02*
M02*
