%FSLAX25Y25*%
%MOIN*%
G04 EasyPC Gerber Version 17.0 Build 3379 *
%ADD96R,0.01181X0.03150*%
%ADD98R,0.01969X0.02362*%
%ADD94R,0.01972X0.04769*%
%ADD88R,0.02100X0.07800*%
%ADD76R,0.02800X0.03500*%
%ADD89R,0.03937X0.04291*%
%ADD83R,0.04528X0.05906*%
%ADD90R,0.05500X0.06000*%
%ADD92R,0.06300X0.10200*%
%ADD14R,0.05906X0.05906*%
%ADD93R,0.06300X0.06300*%
%ADD11C,0.00787*%
%ADD19C,0.00984*%
%ADD17C,0.01000*%
%ADD70C,0.01575*%
%ADD20C,0.01969*%
%ADD71C,0.02362*%
%ADD18C,0.03150*%
%ADD16C,0.03189*%
%ADD99C,0.03937*%
%ADD15C,0.04800*%
%ADD13C,0.05906*%
%ADD95R,0.03150X0.01181*%
%ADD84R,0.04950X0.01200*%
%ADD85R,0.05400X0.01200*%
%ADD75R,0.04800X0.01500*%
%ADD97R,0.02362X0.01969*%
%ADD74R,0.06600X0.02000*%
%ADD77R,0.03500X0.02800*%
%ADD78R,0.05669X0.03543*%
%ADD81R,0.09843X0.03740*%
%ADD87R,0.04291X0.03937*%
%ADD80R,0.04724X0.04528*%
%ADD82R,0.08661X0.04528*%
%ADD79R,0.04921X0.04567*%
%ADD86R,0.06000X0.05500*%
%ADD91R,0.31496X0.08661*%
X0Y0D02*
D02*
D11*
X77629Y183715D02*
Y192770D01*
X79204Y194344*
X94952*
X98101Y191195*
Y151431*
X96526Y149856*
X90227*
X89833Y150250*
Y154974*
X88652Y156156*
X85503*
X84322Y157337*
Y159305*
X85503Y160486*
X89833*
X91015Y161667*
Y179778*
X89046Y181746*
X79597*
X77629Y183715*
G36*
Y192770*
X79204Y194344*
X94952*
X98101Y191195*
Y151431*
X96526Y149856*
X90227*
X89833Y150250*
Y154974*
X88652Y156156*
X85503*
X84322Y157337*
Y159305*
X85503Y160486*
X89833*
X91015Y161667*
Y179778*
X89046Y181746*
X79597*
X77629Y183715*
G37*
D02*
D13*
X12353Y95407D03*
X22353Y79659D03*
Y95407D03*
Y105407D03*
Y121156D03*
Y136904D03*
Y183715D03*
X32353Y59974D03*
Y79659D03*
Y95407D03*
Y105407D03*
Y121156D03*
Y136904D03*
Y183715D03*
X42353D03*
X59833Y6904D03*
Y16904D03*
Y26904D03*
Y36904D03*
Y46904D03*
Y56904D03*
Y66904D03*
Y76904D03*
Y86904D03*
Y96904D03*
Y106904D03*
Y116904D03*
Y126904D03*
Y136904D03*
X69833Y6904D03*
X79833D03*
X89833D03*
X99833D03*
X109833D03*
Y86904D03*
Y96904D03*
Y106904D03*
Y126904D03*
X119833Y6904D03*
Y16904D03*
Y26904D03*
Y36904D03*
Y46904D03*
Y56904D03*
Y66904D03*
Y76904D03*
Y86904D03*
Y96904D03*
Y106904D03*
Y116904D03*
Y126904D03*
Y136904D03*
X155188Y174659D03*
X181093Y78872D03*
Y88872D03*
Y98872D03*
Y124629D03*
Y134629D03*
Y144629D03*
Y154629D03*
Y164629D03*
Y174629D03*
X191093Y78872D03*
Y88872D03*
Y98872D03*
Y108872D03*
Y124629D03*
Y134629D03*
Y144629D03*
Y154629D03*
Y164629D03*
Y174629D03*
D02*
D14*
X12353Y79659D03*
Y105407D03*
Y121156D03*
Y136904D03*
Y183715D03*
X22353Y59974D03*
X155188Y184659D03*
X171093Y124629D03*
Y134629D03*
Y144629D03*
Y154629D03*
Y164629D03*
Y174629D03*
X181093Y108872D03*
D02*
D15*
X5975Y56156D03*
X83141Y185683D03*
Y191195D03*
X87865Y158124D03*
X94558Y161274D03*
Y168360D03*
X102432Y153793D03*
X108337Y146707D03*
X110306Y159699D03*
X111487Y186077D03*
Y191195D03*
X126054Y161274D03*
X131959D03*
X137865D03*
D02*
D16*
X7550Y8911D03*
X11290Y56156D03*
X11881Y154974D03*
Y160486D03*
X17196Y45132D03*
X22117Y49266D03*
X35109Y4974D03*
X42393Y5171D03*
X49676Y37258D03*
X62274Y147494D03*
X66999Y109699D03*
X68574Y158518D03*
X68967Y182140D03*
X70542Y69541D03*
Y75841D03*
X72117Y115604D03*
X72904Y36077D03*
Y84108D03*
X74479Y50644D03*
X76841Y107337D03*
X77629Y84502D03*
X82747Y40014D03*
X84322Y64423D03*
Y70329D03*
X87471Y112848D03*
X88652Y130565D03*
X92589Y123085D03*
X92983Y83715D03*
Y101037D03*
X93377Y73872D03*
X94952Y42770D03*
Y47494D03*
X98101Y97888D03*
X100857Y60486D03*
X104794Y61667D03*
X106763Y42376D03*
X109912Y51825D03*
X112668Y70329D03*
X126054Y144738D03*
X133534Y118360D03*
X140227Y78990D03*
Y88833D03*
Y98675D03*
Y108911D03*
X141015Y14030D03*
Y44738D03*
X142196Y130565D03*
Y137258D03*
Y144738D03*
X145345Y124659D03*
X146133Y62061D03*
X150542Y122070D03*
X156369Y82927D03*
Y93330D03*
Y104187D03*
X160700Y68360D03*
X174085D03*
X179991Y27809D03*
Y36470D03*
X183928Y57730D03*
X192196Y5368D03*
D02*
D17*
X49676Y61873D02*
X62874D01*
X70542Y69541*
X49676Y81934D02*
Y81746D01*
X64637*
X70542Y75841*
X59833Y6904D02*
Y6943D01*
X60306*
X66644Y13281*
X104440*
X110306Y19148*
Y27809*
X114243Y31746*
X163456*
X172117Y40407*
X186290*
Y40801*
X59833Y16904D02*
Y17179D01*
X102826*
X106369Y20722*
Y30959*
X116999Y41589*
X123692*
X133141Y51037*
X190227*
X192196Y49069*
Y24266*
X191408Y23478*
X186290*
X73909Y121805D02*
X79302D01*
X81959Y119148*
X86761*
X86860Y119246*
X73909Y121805D02*
X68081D01*
X65030Y118754*
Y114030*
X59833Y108833*
Y106904*
X73909Y124364D02*
X67294D01*
X59833Y116904*
X73909Y126923D02*
X59853D01*
X59833Y126904*
X76054Y56352D02*
Y55368D01*
X82353Y49069*
X87677*
X89046Y47700*
Y47682*
X78647Y102120D02*
X76358D01*
X74085Y104393*
X71348*
X86847Y94443D02*
X91498D01*
X92983Y92957*
X86847Y97002D02*
Y97100D01*
X97314*
X98101Y97888*
X86860Y121805D02*
X91310D01*
X92589Y123085*
X86860Y124364D02*
X91310D01*
X92589Y123085*
X89046Y47682D02*
Y47494D01*
X92402Y50850*
X95945*
X96920Y51825*
Y53990*
X97117Y54187*
X89046Y53606D02*
X86872D01*
X85503Y54974*
Y57730*
X83928Y59305*
X72707*
X70148Y56746*
Y56352*
X92983Y92957D02*
X91596D01*
X87471Y88833*
Y81156*
X90424Y78203*
X96723*
X94164Y57140D02*
Y55368D01*
X92196Y53400*
X88858*
X89046Y53587*
Y53606*
X96723Y78203D02*
X97117D01*
X99085Y76234*
Y69935*
X97117D02*
Y72888D01*
X96133Y73872*
X93377*
X98101Y97888D02*
Y92957D01*
X103022Y54187D02*
Y47879D01*
X104991Y69935D02*
Y75044D01*
X105000Y75053*
X109912Y65014D02*
X105385D01*
X104794Y64423*
Y61667*
X109912Y66982D02*
X105778D01*
X104794Y65998*
Y61667*
X119833Y26904D02*
Y26707D01*
X113849Y20722*
Y14030*
X115818Y12061*
X124085*
X131172Y19148*
X186290*
X119833Y46904D02*
Y47888D01*
X121723*
X129007Y55171*
Y77612*
X133534Y82140*
Y99463*
X137471Y103400*
X147436*
X151963Y98872*
X119833Y66904D02*
X119755D01*
Y69541*
X114558Y74738*
Y78675*
X111881Y81352*
X99873*
X96723Y78203*
X119833Y96904D02*
Y98360D01*
X124479Y103006*
Y131746*
X127629Y134896*
X134238*
X134288Y134846*
Y127169D02*
X138799D01*
X142196Y130565*
X134288Y129728D02*
X129941D01*
X129204Y128990*
Y86274*
X119833Y76904*
X134288Y132287D02*
Y132140D01*
X128416*
X126841Y130565*
Y93951*
X120621Y87730*
Y86904*
X119833*
X134288Y139964D02*
X139883D01*
X142196Y137652*
Y137258*
X145345Y124659D02*
X134338D01*
X134288Y124609*
X151963Y88872D02*
X154007D01*
Y88833*
X156369*
X151963Y98872D02*
X160711D01*
X151963Y108872D02*
X156369D01*
X156088Y124609D02*
Y124629D01*
X171093*
X156088Y127169D02*
Y127188D01*
X163652*
X171093Y134629*
X156088Y132287D02*
X161290D01*
X163062Y134058*
Y151991*
X165660Y154590*
X172983*
X172944Y154629*
X171093*
X156088Y134846D02*
Y134865D01*
X159715*
X160700Y135850*
Y155397*
X169735Y164432*
X169125*
X168928Y164629*
X171093*
X156369Y78990D02*
Y82927D01*
Y78990D02*
X154125D01*
Y78872*
X151963*
X156369Y88833D02*
Y93330D01*
Y88833D02*
X158731D01*
Y88872*
X160711*
X156369Y104187D02*
Y108872D01*
X160711*
Y78872D02*
X158456D01*
Y78990*
X156369*
X167711Y78872D02*
X181093D01*
X167711Y88872D02*
X181093D01*
X167711Y98872D02*
X181093D01*
X167711Y108872D02*
X181093D01*
X171093Y144629D02*
Y144511D01*
X171133*
X171251Y144393*
X167589*
X165424Y142228*
Y132503*
X162648Y129728*
X156088*
X171093Y174629D02*
X165385D01*
X163062Y172267*
Y162424*
X157944Y157306*
Y141558*
X156349Y139964*
X156088*
X186290Y32140D02*
X177235D01*
X169755Y24659*
X127196*
X119833Y17297*
Y16904*
D02*
D18*
X152620Y144738D02*
Y148469D01*
X154400Y150250*
Y173872*
X155188Y174659*
X157944*
X167393Y184108*
X180215*
X181003Y184896*
X181093Y124629D02*
Y134629D01*
Y144629*
Y154629*
Y164629*
Y174629*
D02*
D19*
X44952Y61873D02*
X43171D01*
X40227Y64817*
Y83715*
X37078Y86864*
X30778*
X22235Y95407*
X22353*
X44952Y81934D02*
Y92770D01*
X37471Y100250*
X15030*
X13062Y98281*
Y96510*
X12353Y95801*
Y95407*
X67400Y147848D02*
Y147643D01*
X62274*
Y147494*
X73909Y119246D02*
Y117397D01*
X72117Y115604*
X78647Y97002D02*
X75326D01*
X72638Y94314*
Y87848*
X78647Y99561D02*
X74578D01*
X73889Y98872*
X71732*
X71330Y99275*
X86860Y126923D02*
Y128772D01*
X88652Y130565*
X94164Y63045D02*
X90630D01*
X89046Y64629*
X94164Y66982D02*
X92786D01*
X90227Y69541*
X89234*
X89046Y69729*
X99085Y54187D02*
Y47879D01*
X101054Y54187D02*
Y60289D01*
X100857Y60486*
X104991Y54187D02*
Y57533D01*
X104007Y58518*
X101644*
X101251Y58911*
X100857Y60486*
X109912Y47682D02*
Y57140D01*
Y61077D02*
X105385D01*
X104794Y61667*
D02*
D70*
X6172Y35880D02*
Y31755D01*
X7165Y30762*
X6172Y44935D02*
Y49266D01*
X6181*
Y51234*
Y55950*
X5975Y56156*
X7550Y15238D02*
Y8911D01*
Y24238D02*
X7916D01*
X12078Y28400*
Y30574*
X12265Y30762*
X9912Y44935D02*
Y47691D01*
X11290Y49069*
Y51225*
X11281Y51234*
Y55950*
X11290Y55959*
Y56156*
X12265Y30762D02*
Y30950D01*
X13849Y32533*
Y35683*
X13652Y35880*
X13105Y5762D02*
Y10726D01*
X14637Y12258*
X16211*
X17393Y13439*
Y17616*
X17196Y17813*
X13652Y35880D02*
X14046D01*
X16605Y38439*
X21517*
X22117Y39039*
X13652Y44935D02*
X17196D01*
Y45132*
X15424Y155180D02*
Y154974D01*
X11881*
X15424Y160280D02*
Y160486D01*
X11881*
X17196Y17813D02*
X20585D01*
X22314Y19541*
X42589*
X44755Y17179*
Y12258*
X46330Y10683*
X47751*
X47794Y10726*
X49676*
X17196Y24813D02*
Y25053D01*
X29204*
X30975Y26825*
Y31663*
X30837Y31800*
X22117Y39039D02*
Y32927D01*
X23244Y31800*
X25837*
X22117Y44139D02*
Y49266D01*
X23247Y150230D02*
Y150250D01*
X27235*
X49282Y128203*
Y93990*
X56369Y86904*
X59833*
X23247Y155230D02*
X15474D01*
X15424Y155180*
X23247Y160230D02*
X15474D01*
X15424Y160280*
X25837Y12400D02*
Y9108D01*
X25857*
Y5762*
X20105*
X28459Y42770D02*
Y53868D01*
X22353Y59974*
X30837Y12400D02*
Y7396D01*
X29204Y5762*
X25857*
X30837Y31800D02*
Y37396D01*
X28810Y39423*
Y42419*
X28459Y42770*
X35109Y171116D02*
X32353Y173872D01*
Y183715*
X35459Y42770D02*
Y32178D01*
X35837Y31800*
X35459Y42770D02*
X42239D01*
X35837Y12400D02*
Y5703D01*
X35109Y4974*
X40433Y171116D02*
X35109D01*
X40837Y12400D02*
Y6726D01*
X42393Y5171*
X40837Y31800D02*
Y26411D01*
X42786Y24463*
X49239*
X49676Y24900*
X42247Y160230D02*
X36546D01*
X35109Y161667*
Y171116*
X44952Y66973D02*
X49676D01*
X44952Y76834D02*
X49676D01*
X45533Y171116D02*
X47707D01*
X49282Y169541*
Y156943*
X47707Y155368*
X42385*
X42247Y155230*
X45533Y171116D02*
Y180535D01*
X42353Y183715*
X49239Y42770D02*
Y37695D01*
X49676Y37258*
Y17726D02*
Y24900D01*
Y31900D02*
Y37258D01*
Y66973D02*
X59764D01*
X59833Y66904*
Y76904D02*
X49746D01*
X49676Y76834*
X59833Y96904D02*
X53810D01*
X52826Y97888*
Y130565*
X33141Y150250*
Y158892*
X26822Y165211*
X23247*
Y165230*
X67400Y152948D02*
X65088D01*
X62668Y155368*
Y171116*
X65030Y173478*
X84967*
X85065Y173380*
X68574Y158518D02*
Y163167D01*
X68787Y163380*
X68826Y168380D02*
Y163419D01*
X68787Y163380*
X68826Y178498D02*
Y181998D01*
X68967Y182140*
X70148Y50644D02*
X74479D01*
X71330Y99275D02*
X67974D01*
X66211Y101037*
Y108911*
X66999Y109699*
X71330Y104375D02*
X73880D01*
X76841Y107337*
X71348Y104393D02*
X71330Y104375D01*
X72638Y87848D02*
X72904D01*
Y84108*
X72717Y40014D02*
X72904D01*
Y36077*
X74291Y147888D02*
Y153006D01*
X67439*
Y152948*
X67400*
X77047Y112848D02*
X74873D01*
X72117Y115604*
X77738Y87848D02*
X77826D01*
Y84502*
X77629*
X77817Y40014D02*
X82747D01*
X77817D02*
Y43172D01*
X76054Y44935*
X78647Y94443D02*
Y93960D01*
X78416*
Y93670*
X77668Y92922*
Y87918*
X77738Y87848*
X79391Y147888D02*
Y153006D01*
X81959Y44935D02*
Y41982D01*
X79991Y40014*
X77817*
X82147Y112848D02*
X87471D01*
X85065Y163380D02*
X73887D01*
X85065Y168380D02*
X73926D01*
X85065Y178380D02*
X74044D01*
X73926Y178498*
X86297Y147661D02*
X79619D01*
X79391Y147888*
X86297Y152761D02*
Y156556D01*
X87865Y158124*
X86847Y99561D02*
X92983D01*
Y101037*
X86847Y102120D02*
X92983D01*
Y101037*
X87865Y158124D02*
X90378D01*
X94748Y153754*
X89046Y42582D02*
Y42376D01*
X86890*
X84528Y40014*
X82747*
X89046Y58706D02*
Y64629D01*
X84528*
X84322Y64423*
X89046Y69729D02*
X84921D01*
X84322Y70329*
X90614Y188439D02*
Y186857D01*
X89440Y185683*
X83141*
X90614Y188439D02*
Y191195D01*
X83141*
X92983Y87857D02*
Y83715D01*
X94748Y153754D02*
X87291D01*
X86297Y152761*
X94748Y153754D02*
X95739D01*
Y167179*
X94558Y168360*
X96664Y163380D02*
X94558Y161274D01*
X98101Y87857D02*
X92983D01*
X98889Y42582D02*
X95139D01*
X94952Y42770*
X98889Y47682D02*
X95139D01*
X94952Y47494*
X99085Y47879D02*
X98889Y47682D01*
X103022Y47879D02*
X103219Y47682D01*
Y42582D02*
Y41982D01*
X103613Y42376*
X106763*
X104014Y188439D02*
Y190808D01*
X104400Y191195*
X104014Y188439D02*
Y187258D01*
X104007*
X105188Y186077*
X104065Y173380D02*
X110789D01*
X111881Y174472*
X104065Y188388D02*
X104014Y188439D01*
X108148Y153754D02*
Y157541D01*
X110306Y159699*
X108148Y153754D02*
Y146896D01*
X108337Y146707*
X108148Y153754D02*
Y149273D01*
X106369Y147494*
X87645*
X87478Y147661*
X86297*
X108148Y153754D02*
X102471D01*
X102432Y153793*
X109912Y42582D02*
Y42376D01*
X106763*
X109912Y47682D02*
Y51825D01*
X110100Y75053D02*
Y72897D01*
X112668Y70329*
X111881Y179572D02*
X128425D01*
X131959Y176037*
X126054Y161274D02*
Y156156D01*
X126448Y155762*
Y155368*
X131959Y154974*
Y153596*
X131772Y144738D02*
X126054D01*
X131802Y153754D02*
X131959Y153596D01*
Y161274*
X134288Y122050D02*
Y119114D01*
X133534Y118360*
X134288Y137405D02*
X129450D01*
X128416Y138439*
Y141383*
X131772Y144738*
X135700Y14030D02*
X141015D01*
X135700Y44935D02*
X140818D01*
X141015Y44738*
X136872Y144738D02*
X142196D01*
X137865Y161274D02*
Y156549D01*
X136684Y155368*
X131959*
Y153596*
X138849Y62061D02*
X146133D01*
X144963Y78872D02*
X140345D01*
X140227Y78990*
X144963Y88872D02*
X140267D01*
X140227Y88833*
X144963Y98872D02*
X142589D01*
Y98675*
X140227*
X144963Y108872D02*
X139526D01*
X139487Y108833*
X140148*
X140227Y108911*
X147520Y144738D02*
X142196D01*
X156088Y122050D02*
X150562D01*
X150542Y122070*
X156088Y137405D02*
X151891D01*
X150463Y138833*
Y140407*
X151644Y141589*
Y143763*
X152620Y144738*
X164843Y68360D02*
X160700D01*
X169943D02*
X174085D01*
X183928Y62455D02*
Y57730D01*
X184519Y5368D02*
X192196D01*
X186290Y27809D02*
X179991D01*
X186290Y36470D02*
X179991D01*
D02*
D71*
X104400Y191195D02*
X111487D01*
X105188Y186077D02*
X111487D01*
D02*
D20*
X104065Y163380D02*
X96664D01*
X104065Y178380D02*
Y188388D01*
D02*
D74*
X23247Y150230D03*
Y155230D03*
Y160230D03*
Y165230D03*
X42247Y150230D03*
Y155230D03*
Y160230D03*
Y165230D03*
X85065Y163380D03*
Y168380D03*
Y173380D03*
Y178380D03*
X104065Y163380D03*
Y168380D03*
Y173380D03*
Y178380D03*
D02*
D75*
X78647Y94443D03*
Y97002D03*
Y99561D03*
Y102120D03*
X86847Y94443D03*
Y97002D03*
Y99561D03*
Y102120D03*
D02*
D76*
X15424Y155180D03*
Y160280D03*
X22117Y39039D03*
Y44139D03*
X44952Y61873D03*
Y66973D03*
Y76834D03*
Y81934D03*
X49676Y61873D03*
Y66973D03*
Y76834D03*
Y81934D03*
X67400Y147848D03*
Y152948D03*
X71330Y99275D03*
Y104375D03*
X86297Y147661D03*
Y152761D03*
X89046Y42582D03*
Y47682D03*
Y53606D03*
Y58706D03*
Y64629D03*
Y69729D03*
X92983Y87857D03*
Y92957D03*
X98101Y87857D03*
Y92957D03*
X98889Y42582D03*
Y47682D03*
X103219Y42582D03*
Y47682D03*
X109912Y42582D03*
Y47682D03*
X111881Y174472D03*
Y179572D03*
D02*
D77*
X6181Y51234D03*
X7165Y30762D03*
X11281Y51234D03*
X12265Y30762D03*
X40433Y171116D03*
X45533D03*
X68787Y163380D03*
X68826Y168380D03*
Y178498D03*
X72638Y87848D03*
X72717Y40014D03*
X73887Y163380D03*
X73926Y168380D03*
Y178498D03*
X74291Y147888D03*
Y153006D03*
X77047Y112848D03*
X77738Y87848D03*
X77817Y40014D03*
X79391Y147888D03*
Y153006D03*
X82147Y112848D03*
X105000Y75053D03*
X110100D03*
X131772Y144738D03*
X136872D03*
X147520D03*
X152620D03*
X164843Y68360D03*
X169943D03*
D02*
D78*
X186290Y14817D03*
Y19148D03*
Y23478D03*
Y27809D03*
Y32140D03*
Y36470D03*
Y40801D03*
Y45132D03*
D02*
D79*
X175857Y6943D03*
D02*
D80*
X140227D03*
D02*
D81*
X183928Y62455D03*
D02*
D82*
X138849Y62061D03*
X184519Y5368D03*
D02*
D83*
X135700Y14030D03*
Y44935D03*
D02*
D84*
X73909Y119246D03*
Y121805D03*
Y124364D03*
Y126923D03*
X86860Y119246D03*
Y121805D03*
Y124364D03*
Y126923D03*
D02*
D85*
X134288Y122050D03*
Y124609D03*
Y127169D03*
Y129728D03*
Y132287D03*
Y134846D03*
Y137405D03*
Y139964D03*
X156088Y122050D03*
Y124609D03*
Y127169D03*
Y129728D03*
Y132287D03*
Y134846D03*
Y137405D03*
Y139964D03*
D02*
D86*
X181003Y184896D03*
X190003D03*
D02*
D87*
X13105Y5762D03*
X20105D03*
X28459Y42770D03*
X35459D03*
X42239D03*
X49239D03*
X144963Y78872D03*
Y88872D03*
Y98872D03*
Y108872D03*
X151963Y78872D03*
Y88872D03*
Y98872D03*
Y108872D03*
X160711Y78872D03*
Y88872D03*
Y98872D03*
Y108872D03*
X167711Y78872D03*
Y88872D03*
Y98872D03*
Y108872D03*
D02*
D88*
X25837Y12400D03*
Y31800D03*
X30837Y12400D03*
Y31800D03*
X35837Y12400D03*
Y31800D03*
X40837Y12400D03*
Y31800D03*
D02*
D89*
X17196Y17813D03*
Y24813D03*
X49676Y10726D03*
Y17726D03*
Y24900D03*
Y31900D03*
D02*
D90*
X7550Y15238D03*
Y24238D03*
D02*
D91*
X131959Y153596D03*
Y176037D03*
D02*
D92*
X90614Y188439D03*
X104014D03*
D02*
D93*
X94748Y153754D03*
X108148D03*
D02*
D94*
X6172Y35880D03*
Y44935D03*
X9912D03*
X13652Y35880D03*
Y44935D03*
D02*
D95*
X94164Y57140D03*
Y59108D03*
Y61077D03*
Y63045D03*
Y65014D03*
Y66982D03*
X109912Y57140D03*
Y59108D03*
Y61077D03*
Y63045D03*
Y65014D03*
Y66982D03*
D02*
D96*
X97117Y54187D03*
Y69935D03*
X99085Y54187D03*
Y69935D03*
X101054Y54187D03*
Y69935D03*
X103022Y54187D03*
Y69935D03*
X104991Y54187D03*
Y69935D03*
X106959Y54187D03*
Y69935D03*
D02*
D97*
X70148Y44935D03*
Y56352D03*
X76054Y44935D03*
Y56352D03*
X81959Y44935D03*
Y56352D03*
D02*
D98*
X70148Y50644D03*
D02*
D99*
X104065Y168380D02*
Y168360D01*
X115424*
X123081Y176018*
X131959*
Y176037*
X108148Y153754D02*
X131802D01*
X181093Y174629D02*
Y184805D01*
X181003Y184896*
X191093Y174629D02*
Y183805D01*
X190003Y184896*
X0Y0D02*
M02*
