%FSLAX25Y25*%
%MOIN*%
G04 EasyPC Gerber Version 17.0 Build 3379 *
%ADD21C,0.01181*%
X0Y0D02*
D02*
D21*
X143131Y175988D02*
Y181303D01*
X145345D02*
X140916D01*
X138259Y175988D02*
Y181303D01*
X133830*
X134715Y178646D02*
X138259D01*
Y175988D02*
X133830D01*
X131172D02*
Y181303D01*
X126743*
X127629Y178646D02*
X131172D01*
Y175988D02*
X126743D01*
X124085D02*
Y181303D01*
X119656Y175988*
Y181303*
X116999Y177317D02*
X116556Y176431D01*
X115670Y175988*
X113898*
X113013Y176431*
X112570Y177317*
X113013Y178203*
X113898Y178646*
X115670*
X116556Y179089*
X116999Y179974*
X116556Y180860*
X115670Y181303*
X113898*
X113013Y180860*
X112570Y179974*
X107698Y175988D02*
Y178646D01*
X109912Y181303*
X107698Y178646D02*
X105483Y181303D01*
X95739Y177317D02*
X95296Y176431D01*
X94410Y175988*
X92639*
X91753Y176431*
X91310Y177317*
X91753Y178203*
X92639Y178646*
X94410*
X95296Y179089*
X95739Y179974*
X95296Y180860*
X94410Y181303*
X92639*
X91753Y180860*
X91310Y179974*
X88652Y175988D02*
Y181303D01*
X84223*
X85109Y178646D02*
X88652D01*
Y175988D02*
X84223D01*
X81566D02*
Y181303D01*
X77137Y175988*
Y181303*
X74479Y177317D02*
X74036Y176431D01*
X73150Y175988*
X71379*
X70493Y176431*
X70050Y177317*
X70493Y178203*
X71379Y178646*
X73150*
X74036Y179089*
X74479Y179974*
X74036Y180860*
X73150Y181303*
X71379*
X70493Y180860*
X70050Y179974*
X67393Y177760D02*
Y179531D01*
X66950Y180417*
X66507Y180860*
X65621Y181303*
X64735*
X63849Y180860*
X63406Y180417*
X62963Y179531*
Y177760*
X63406Y176874*
X63849Y176431*
X64735Y175988*
X65621*
X66507Y176431*
X66950Y176874*
X67393Y177760*
X60306Y175988D02*
Y181303D01*
X57206*
X56320Y180860*
X55877Y179974*
X56320Y179089*
X57206Y178646*
X60306*
X57206D02*
X55877Y175988D01*
X145345Y167484D02*
Y172799D01*
X140916*
X141802Y170142D02*
X145345D01*
X138259Y172799D02*
Y168813D01*
X137816Y167927*
X136930Y167484*
X135158*
X134272Y167927*
X133830Y168813*
Y172799*
X131172Y168813D02*
X130729Y167927D01*
X129843Y167484*
X128072*
X127186Y167927*
X126743Y168813*
X127186Y169699*
X128072Y170142*
X129843*
X130729Y170585*
X131172Y171470*
X130729Y172356*
X129843Y172799*
X128072*
X127186Y172356*
X126743Y171470*
X122757Y167484D02*
X120985D01*
X121871D02*
Y172799D01*
X122757D02*
X120985D01*
X116999Y169256D02*
Y171028D01*
X116556Y171913*
X116113Y172356*
X115227Y172799*
X114341*
X113456Y172356*
X113013Y171913*
X112570Y171028*
Y169256*
X113013Y168370*
X113456Y167927*
X114341Y167484*
X115227*
X116113Y167927*
X116556Y168370*
X116999Y169256*
X109912Y167484D02*
Y172799D01*
X105483Y167484*
Y172799*
X92639Y170142D02*
X91753Y169699D01*
X91310Y168813*
X91753Y167927*
X92639Y167484*
X95739*
Y172799*
X92639*
X91753Y172356*
X91310Y171470*
X91753Y170585*
X92639Y170142*
X95739*
X88652Y169256D02*
Y171028D01*
X88209Y171913*
X87767Y172356*
X86881Y172799*
X85995*
X85109Y172356*
X84666Y171913*
X84223Y171028*
Y169256*
X84666Y168370*
X85109Y167927*
X85995Y167484*
X86881*
X87767Y167927*
X88209Y168370*
X88652Y169256*
X81566Y167484D02*
X79351Y172799D01*
X77137Y167484*
X80680Y169699D02*
X78022D01*
X74479Y167484D02*
Y172799D01*
X71379*
X70493Y172356*
X70050Y171470*
X70493Y170585*
X71379Y170142*
X74479*
X71379D02*
X70050Y167484D01*
X67393D02*
Y172799D01*
X64735*
X63849Y172356*
X63406Y171913*
X62963Y171028*
Y169256*
X63406Y168370*
X63849Y167927*
X64735Y167484*
X67393*
X53219D02*
Y172799D01*
X50119*
X49233Y172356*
X48790Y171470*
X49233Y170585*
X50119Y170142*
X53219*
X50119D02*
X48790Y167484D01*
X45247D02*
X43475D01*
X44361D02*
Y172799D01*
X45247Y171913*
X38603Y167484D02*
X38160Y167927D01*
X38603Y168370*
X39046Y167927*
X38603Y167484*
X31517Y167927D02*
X30631Y167484D01*
X29745*
X28859Y167927*
X28416Y168813*
Y171470*
X28859Y172356*
X29745Y172799*
X30631*
X31517Y172356*
X31959Y171470*
Y168813*
X31517Y167927*
X28859Y172356*
X0Y0D02*
M02*
