%FSLAX25Y25*%
%MOIN*%
G04 EasyPC Gerber Version 17.0 Build 3379 *
%ADD14R,0.05906X0.05906*%
%ADD28C,0.00100*%
%ADD16C,0.03189*%
%ADD15C,0.04800*%
%ADD13C,0.05906*%
X0Y0D02*
D02*
D13*
X12353Y95407D03*
X22353Y79659D03*
Y95407D03*
Y105407D03*
Y121156D03*
Y136904D03*
Y183715D03*
X32353Y59974D03*
Y79659D03*
Y95407D03*
Y105407D03*
Y121156D03*
Y136904D03*
Y183715D03*
X42353D03*
X59833Y6904D03*
Y16904D03*
Y26904D03*
Y36904D03*
Y46904D03*
Y56904D03*
Y66904D03*
Y76904D03*
Y86904D03*
Y96904D03*
Y106904D03*
Y116904D03*
Y126904D03*
Y136904D03*
X69833Y6904D03*
X79833D03*
X89833D03*
X99833D03*
X109833D03*
Y86904D03*
Y96904D03*
Y106904D03*
Y126904D03*
X119833Y6904D03*
Y16904D03*
Y26904D03*
Y36904D03*
Y46904D03*
Y56904D03*
Y66904D03*
Y76904D03*
Y86904D03*
Y96904D03*
Y106904D03*
Y116904D03*
Y126904D03*
Y136904D03*
X155188Y174659D03*
X181093Y78872D03*
Y88872D03*
Y98872D03*
Y124629D03*
Y134629D03*
Y144629D03*
Y154629D03*
Y164629D03*
Y174629D03*
X191093Y78872D03*
Y88872D03*
Y98872D03*
Y108872D03*
Y124629D03*
Y134629D03*
Y144629D03*
Y154629D03*
Y164629D03*
Y174629D03*
D02*
D14*
X12353Y79659D03*
Y105407D03*
Y121156D03*
Y136904D03*
Y183715D03*
X22353Y59974D03*
X155188Y184659D03*
X171093Y124629D03*
Y134629D03*
Y144629D03*
Y154629D03*
Y164629D03*
Y174629D03*
X181093Y108872D03*
D02*
D15*
X5975Y56156D03*
X83141Y185683D03*
Y191195D03*
X87865Y158124D03*
X94558Y161274D03*
Y168360D03*
X102432Y153793D03*
X108337Y146707D03*
X110306Y159699D03*
X111487Y186077D03*
Y191195D03*
X126054Y161274D03*
X131959D03*
X137865D03*
D02*
D16*
X7550Y8911D03*
X11290Y56156D03*
X11881Y154974D03*
Y160486D03*
X17196Y45132D03*
X22117Y49266D03*
X35109Y4974D03*
X42393Y5171D03*
X49676Y37258D03*
X62274Y147494D03*
X66999Y109699D03*
X68574Y158518D03*
X68967Y182140D03*
X70542Y69541D03*
Y75841D03*
X72117Y115604D03*
X72904Y36077D03*
Y84108D03*
X74479Y50644D03*
X76841Y107337D03*
X77629Y84502D03*
X82747Y40014D03*
X84322Y64423D03*
Y70329D03*
X87471Y112848D03*
X88652Y130565D03*
X92589Y123085D03*
X92983Y83715D03*
Y101037D03*
X93377Y73872D03*
X94952Y42770D03*
Y47494D03*
X98101Y97888D03*
X100857Y60486D03*
X104794Y61667D03*
X106763Y42376D03*
X109912Y51825D03*
X112668Y70329D03*
X126054Y144738D03*
X133534Y118360D03*
X140227Y78990D03*
Y88833D03*
Y98675D03*
Y108911D03*
X141015Y14030D03*
Y44738D03*
X142196Y130565D03*
Y137258D03*
Y144738D03*
X145345Y124659D03*
X146133Y62061D03*
X150542Y122070D03*
X156369Y82927D03*
Y93330D03*
Y104187D03*
X160700Y68360D03*
X174085D03*
X179991Y27809D03*
Y36470D03*
X183928Y57730D03*
X192196Y5368D03*
D02*
D28*
X857Y250D02*
X197707D01*
Y197100*
X857*
Y250*
X2394Y56156D02*
G75*
G02X9556I3581D01*
G01*
G75*
G02X2394I-3581*
G01*
X8219Y75526D02*
Y83793D01*
X16487*
Y75526*
X8219*
Y95407D02*
G75*
G02X16487I4134D01*
G01*
G75*
G02X8219I-4134*
G01*
Y101274D02*
Y109541D01*
X16487*
Y101274*
X8219*
Y117022D02*
Y125289D01*
X16487*
Y117022*
X8219*
Y132770D02*
Y141037D01*
X16487*
Y132770*
X8219*
Y179581D02*
Y187848D01*
X16487*
Y179581*
X8219*
X9105Y154974D02*
G75*
G02X14656I2776D01*
G01*
G75*
G02X9105I-2776*
G01*
X14420Y45132D02*
G75*
G02X19971I2776D01*
G01*
G75*
G02X14420I-2776*
G01*
X18219Y55841D02*
Y64108D01*
X26487*
Y55841*
X18219*
Y79659D02*
G75*
G02X26487I4134D01*
G01*
G75*
G02X18219I-4134*
G01*
Y95407D02*
G75*
G02X26487I4134D01*
G01*
G75*
G02X18219I-4134*
G01*
Y105407D02*
G75*
G02X26487I4134D01*
G01*
G75*
G02X18219I-4134*
G01*
Y121156D02*
G75*
G02X26487I4134D01*
G01*
G75*
G02X18219I-4134*
G01*
Y136904D02*
G75*
G02X26487I4134D01*
G01*
G75*
G02X18219I-4134*
G01*
X19647Y182533D02*
G75*
G03X21172Y181008I2706J1181D01*
G01*
Y179753*
G75*
G02X18392Y182533I1181J3961*
G01*
X19647*
X21172Y186421D02*
G75*
G03X19647Y184896I1181J-2706D01*
G01*
X18392*
G75*
G02X21172Y187676I3961J-1181*
G01*
Y186421*
X23534Y181008D02*
G75*
G03X25059Y182533I-1181J2706D01*
G01*
X26315*
G75*
G02X23534Y179753I-3961J1181*
G01*
Y181008*
X25059Y184896D02*
G75*
G03X23534Y186421I-2706J-1181D01*
G01*
Y187676*
G75*
G02X26315Y184896I-1181J-3961*
G01*
X25059*
X28219Y183715D02*
G75*
G02X36487I4134D01*
G01*
G75*
G02X28219I-4134*
G01*
X29647Y58793D02*
G75*
G03X31172Y57268I2706J1181D01*
G01*
Y56013*
G75*
G02X28392Y58793I1181J3961*
G01*
X29647*
Y78478D02*
G75*
G03X31172Y76953I2706J1181D01*
G01*
Y75698*
G75*
G02X28392Y78478I1181J3961*
G01*
X29647*
Y94226D02*
G75*
G03X31172Y92701I2706J1181D01*
G01*
Y91446*
G75*
G02X28392Y94226I1181J3961*
G01*
X29647*
Y104226D02*
G75*
G03X31172Y102701I2706J1181D01*
G01*
Y101446*
G75*
G02X28392Y104226I1181J3961*
G01*
X29647*
Y119974D02*
G75*
G03X31172Y118449I2706J1181D01*
G01*
Y117194*
G75*
G02X28392Y119974I1181J3961*
G01*
X29647*
Y135722D02*
G75*
G03X31172Y134197I2706J1181D01*
G01*
Y132942*
G75*
G02X28392Y135722I1181J3961*
G01*
X29647*
X31172Y62681D02*
G75*
G03X29647Y61156I1181J-2706D01*
G01*
X28392*
G75*
G02X31172Y63936I3961J-1181*
G01*
Y62681*
Y82366D02*
G75*
G03X29647Y80841I1181J-2706D01*
G01*
X28392*
G75*
G02X31172Y83621I3961J-1181*
G01*
Y82366*
Y98114D02*
G75*
G03X29647Y96589I1181J-2706D01*
G01*
X28392*
G75*
G02X31172Y99369I3961J-1181*
G01*
Y98114*
Y108114D02*
G75*
G03X29647Y106589I1181J-2706D01*
G01*
X28392*
G75*
G02X31172Y109369I3961J-1181*
G01*
Y108114*
Y123862D02*
G75*
G03X29647Y122337I1181J-2706D01*
G01*
X28392*
G75*
G02X31172Y125117I3961J-1181*
G01*
Y123862*
Y139610D02*
G75*
G03X29647Y138085I1181J-2706D01*
G01*
X28392*
G75*
G02X31172Y140865I3961J-1181*
G01*
Y139610*
X32333Y4974D02*
G75*
G02X37885I2776D01*
G01*
G75*
G02X32333I-2776*
G01*
X33534Y57268D02*
G75*
G03X35059Y58793I-1181J2706D01*
G01*
X36315*
G75*
G02X33534Y56013I-3961J1181*
G01*
Y57268*
Y76953D02*
G75*
G03X35059Y78478I-1181J2706D01*
G01*
X36315*
G75*
G02X33534Y75698I-3961J1181*
G01*
Y76953*
Y92701D02*
G75*
G03X35059Y94226I-1181J2706D01*
G01*
X36315*
G75*
G02X33534Y91446I-3961J1181*
G01*
Y92701*
Y102701D02*
G75*
G03X35059Y104226I-1181J2706D01*
G01*
X36315*
G75*
G02X33534Y101446I-3961J1181*
G01*
Y102701*
Y118449D02*
G75*
G03X35059Y119974I-1181J2706D01*
G01*
X36315*
G75*
G02X33534Y117194I-3961J1181*
G01*
Y118449*
Y134197D02*
G75*
G03X35059Y135722I-1181J2706D01*
G01*
X36315*
G75*
G02X33534Y132942I-3961J1181*
G01*
Y134197*
X35059Y61156D02*
G75*
G03X33534Y62681I-2706J-1181D01*
G01*
Y63936*
G75*
G02X36315Y61156I-1181J-3961*
G01*
X35059*
Y80841D02*
G75*
G03X33534Y82366I-2706J-1181D01*
G01*
Y83621*
G75*
G02X36315Y80841I-1181J-3961*
G01*
X35059*
Y96589D02*
G75*
G03X33534Y98114I-2706J-1181D01*
G01*
Y99369*
G75*
G02X36315Y96589I-1181J-3961*
G01*
X35059*
Y106589D02*
G75*
G03X33534Y108114I-2706J-1181D01*
G01*
Y109369*
G75*
G02X36315Y106589I-1181J-3961*
G01*
X35059*
Y122337D02*
G75*
G03X33534Y123862I-2706J-1181D01*
G01*
Y125117*
G75*
G02X36315Y122337I-1181J-3961*
G01*
X35059*
Y138085D02*
G75*
G03X33534Y139610I-2706J-1181D01*
G01*
Y140865*
G75*
G02X36315Y138085I-1181J-3961*
G01*
X35059*
X38219Y183715D02*
G75*
G02X46487I4134D01*
G01*
G75*
G02X38219I-4134*
G01*
X55700Y6904D02*
G75*
G02X63967I4134D01*
G01*
G75*
G02X55700I-4134*
G01*
Y16904D02*
G75*
G02X63967I4134D01*
G01*
G75*
G02X55700I-4134*
G01*
Y26904D02*
G75*
G02X63967I4134D01*
G01*
G75*
G02X55700I-4134*
G01*
Y36904D02*
G75*
G02X63967I4134D01*
G01*
G75*
G02X55700I-4134*
G01*
Y46904D02*
G75*
G02X63967I4134D01*
G01*
G75*
G02X55700I-4134*
G01*
Y56904D02*
G75*
G02X63967I4134D01*
G01*
G75*
G02X55700I-4134*
G01*
Y66904D02*
G75*
G02X63967I4134D01*
G01*
G75*
G02X55700I-4134*
G01*
Y76904D02*
G75*
G02X63967I4134D01*
G01*
G75*
G02X55700I-4134*
G01*
Y86904D02*
G75*
G02X63967I4134D01*
G01*
G75*
G02X55700I-4134*
G01*
Y96904D02*
G75*
G02X63967I4134D01*
G01*
G75*
G02X55700I-4134*
G01*
Y106904D02*
G75*
G02X63967I4134D01*
G01*
G75*
G02X55700I-4134*
G01*
Y116904D02*
G75*
G02X63967I4134D01*
G01*
G75*
G02X55700I-4134*
G01*
Y126904D02*
G75*
G02X63967I4134D01*
G01*
G75*
G02X55700I-4134*
G01*
X57127Y135722D02*
G75*
G03X58652Y134197I2706J1181D01*
G01*
Y132942*
G75*
G02X55872Y135722I1181J3961*
G01*
X57127*
X58652Y139610D02*
G75*
G03X57127Y138085I1181J-2706D01*
G01*
X55872*
G75*
G02X58652Y140865I3961J-1181*
G01*
Y139610*
X61015Y134197D02*
G75*
G03X62540Y135722I-1181J2706D01*
G01*
X63795*
G75*
G02X61015Y132942I-3961J1181*
G01*
Y134197*
X62540Y138085D02*
G75*
G03X61015Y139610I-2706J-1181D01*
G01*
Y140865*
G75*
G02X63795Y138085I-1181J-3961*
G01*
X62540*
X64223Y109699D02*
G75*
G02X69774I2776D01*
G01*
G75*
G02X64223I-2776*
G01*
X65700Y6904D02*
G75*
G02X73967I4134D01*
G01*
G75*
G02X65700I-4134*
G01*
X66192Y182140D02*
G75*
G02X71743I2776D01*
G01*
G75*
G02X66192I-2776*
G01*
X67767Y69541D02*
G75*
G02X73318I2776D01*
G01*
G75*
G02X67767I-2776*
G01*
Y75841D02*
G75*
G02X73318I2776D01*
G01*
G75*
G02X67767I-2776*
G01*
X69341Y115604D02*
G75*
G02X74893I2776D01*
G01*
G75*
G02X69341I-2776*
G01*
X74066Y107337D02*
G75*
G02X79617I2776D01*
G01*
G75*
G02X74066I-2776*
G01*
X75700Y6904D02*
G75*
G02X83967I4134D01*
G01*
G75*
G02X75700I-4134*
G01*
X77629Y87278D02*
G75*
G02Y81726J-2776D01*
G01*
G75*
G02Y87278J2776*
G01*
X79971Y40014D02*
G75*
G02X85522I2776D01*
G01*
G75*
G02X79971I-2776*
G01*
X80854Y188439D02*
G75*
G02X79760Y190014I2287J2756D01*
G01*
X81051*
G75*
G03X81959Y189106I2089J1181*
G01*
Y189064*
Y187814*
Y187772*
G75*
G03X81051Y186864I1181J-2089*
G01*
X79760*
G75*
G02X80854Y188439I3381J-1181*
G01*
X81051Y184502D02*
G75*
G03X81959Y183594I2089J1181D01*
G01*
Y182302*
G75*
G02X79760Y184502I1181J3381*
G01*
X81051*
X81546Y64423D02*
G75*
G02X87097I2776D01*
G01*
G75*
G02X81546I-2776*
G01*
X81959Y193284D02*
G75*
G03X81051Y192376I1181J-2089D01*
G01*
X79760*
G75*
G02X81959Y194576I3381J-1181*
G01*
Y193284*
X84322Y183594D02*
G75*
G03X85230Y184502I-1181J2089D01*
G01*
X86521*
G75*
G02X84322Y182302I-3381J1181*
G01*
Y183594*
Y187814D02*
Y189064D01*
Y189106*
G75*
G03X85230Y190014I-1181J2089*
G01*
X86521*
G75*
G02X85427Y188439I-3381J1181*
G01*
G75*
G02X86521Y186864I-2287J-2756*
G01*
X85230*
G75*
G03X84322Y187772I-2089J-1181*
G01*
Y187814*
X85230Y192376D02*
G75*
G03X84322Y193284I-2089J-1181D01*
G01*
Y194576*
G75*
G02X86521Y192376I-1181J-3381*
G01*
X85230*
X85776Y156943D02*
G75*
G03X86684Y156035I2089J1181D01*
G01*
Y154743*
G75*
G02X84484Y156943I1181J3381*
G01*
X85776*
X86684Y160213D02*
G75*
G03X85776Y159305I1181J-2089D01*
G01*
X84484*
G75*
G02X86684Y161505I3381J-1181*
G01*
Y160213*
X87127Y5722D02*
G75*
G03X88652Y4197I2706J1181D01*
G01*
Y2942*
G75*
G02X85872Y5722I1181J3961*
G01*
X87127*
X88652Y9610D02*
G75*
G03X87127Y8085I1181J-2706D01*
G01*
X85872*
G75*
G02X88652Y10865I3961J-1181*
G01*
Y9610*
X89046Y156035D02*
G75*
G03X89954Y156943I-1181J2089D01*
G01*
X91246*
G75*
G02X89046Y154743I-3381J1181*
G01*
Y156035*
X89814Y123085D02*
G75*
G02X95365I2776D01*
G01*
G75*
G02X89814I-2776*
G01*
X89954Y159305D02*
G75*
G03X89046Y160213I-2089J-1181D01*
G01*
Y161505*
G75*
G02X91246Y159305I-1181J-3381*
G01*
X89954*
X90207Y83715D02*
G75*
G02X95759I2776D01*
G01*
G75*
G02X90207I-2776*
G01*
X90601Y73872D02*
G75*
G02X96152I2776D01*
G01*
G75*
G02X90601I-2776*
G01*
X91015Y4197D02*
G75*
G03X92540Y5722I-1181J2706D01*
G01*
X93795*
G75*
G02X91015Y2942I-3961J1181*
G01*
Y4197*
X92176Y47494D02*
G75*
G02X97727I2776D01*
G01*
G75*
G02X92176I-2776*
G01*
X92469Y160093D02*
G75*
G03X93377Y159184I2089J1181D01*
G01*
Y157893*
G75*
G02X91177Y160093I1181J3381*
G01*
X92469*
Y167179D02*
G75*
G03X93377Y166271I2089J1181D01*
G01*
Y164980*
G75*
G02X91177Y167179I1181J3381*
G01*
X92469*
X92540Y8085D02*
G75*
G03X91015Y9610I-2706J-1181D01*
G01*
Y10865*
G75*
G02X93795Y8085I-1181J-3961*
G01*
X92540*
X93377Y163363D02*
G75*
G03X92469Y162455I1181J-2089D01*
G01*
X91177*
G75*
G02X93377Y164654I3381J-1181*
G01*
Y163363*
Y170450D02*
G75*
G03X92469Y169541I1181J-2089D01*
G01*
X91177*
G75*
G02X93377Y171741I3381J-1181*
G01*
Y170450*
X95326Y97888D02*
G75*
G02X100877I2776D01*
G01*
G75*
G02X95326I-2776*
G01*
X95700Y6904D02*
G75*
G02X103967I4134D01*
G01*
G75*
G02X95700I-4134*
G01*
X95739Y159184D02*
G75*
G03X96647Y160093I-1181J2089D01*
G01*
X97939*
G75*
G02X95739Y157893I-3381J1181*
G01*
Y159184*
Y166271D02*
G75*
G03X96647Y167179I-1181J2089D01*
G01*
X97939*
G75*
G02X95739Y164980I-3381J1181*
G01*
Y166271*
X96647Y162455D02*
G75*
G03X95739Y163363I-2089J-1181D01*
G01*
Y164654*
G75*
G02X97939Y162455I-1181J-3381*
G01*
X96647*
Y169541D02*
G75*
G03X95739Y170450I-2089J-1181D01*
G01*
Y171741*
G75*
G02X97939Y169541I-1181J-3381*
G01*
X96647*
X98851Y153793D02*
G75*
G02X106013I3581D01*
G01*
G75*
G02X98851I-3581*
G01*
X104756Y146707D02*
G75*
G02X111919I3581D01*
G01*
G75*
G02X104756I-3581*
G01*
X105700Y6904D02*
G75*
G02X113967I4134D01*
G01*
G75*
G02X105700I-4134*
G01*
Y86904D02*
G75*
G02X113967I4134D01*
G01*
G75*
G02X105700I-4134*
G01*
Y96904D02*
G75*
G02X113967I4134D01*
G01*
G75*
G02X105700I-4134*
G01*
Y106904D02*
G75*
G02X113967I4134D01*
G01*
G75*
G02X105700I-4134*
G01*
Y126904D02*
G75*
G02X113967I4134D01*
G01*
G75*
G02X105700I-4134*
G01*
X106725Y159699D02*
G75*
G02X113887I3581D01*
G01*
G75*
G02X106725I-3581*
G01*
X107137Y51825D02*
G75*
G02X112688I2776D01*
G01*
G75*
G02X107137I-2776*
G01*
X108982Y188636D02*
G75*
G02X107906Y191195I2505J2559D01*
G01*
G75*
G02X115068I3581*
G01*
G75*
G02X113992Y188636I-3581*
G01*
G75*
G02X115068Y186077I-2505J-2559*
G01*
G75*
G02X107906I-3581*
G01*
G75*
G02X108982Y188636I3581*
G01*
X115700Y6904D02*
G75*
G02X123967I4134D01*
G01*
G75*
G02X115700I-4134*
G01*
Y16904D02*
G75*
G02X123967I4134D01*
G01*
G75*
G02X115700I-4134*
G01*
Y26904D02*
G75*
G02X123967I4134D01*
G01*
G75*
G02X115700I-4134*
G01*
Y36904D02*
G75*
G02X123967I4134D01*
G01*
G75*
G02X115700I-4134*
G01*
Y46904D02*
G75*
G02X123967I4134D01*
G01*
G75*
G02X115700I-4134*
G01*
Y56904D02*
G75*
G02X123967I4134D01*
G01*
G75*
G02X115700I-4134*
G01*
Y66904D02*
G75*
G02X123967I4134D01*
G01*
G75*
G02X115700I-4134*
G01*
Y76904D02*
G75*
G02X123967I4134D01*
G01*
G75*
G02X115700I-4134*
G01*
Y86904D02*
G75*
G02X123967I4134D01*
G01*
G75*
G02X115700I-4134*
G01*
Y96904D02*
G75*
G02X123967I4134D01*
G01*
G75*
G02X115700I-4134*
G01*
Y106904D02*
G75*
G02X123967I4134D01*
G01*
G75*
G02X115700I-4134*
G01*
Y116904D02*
G75*
G02X123967I4134D01*
G01*
G75*
G02X115700I-4134*
G01*
Y136904D02*
G75*
G02X123967I4134D01*
G01*
G75*
G02X115700I-4134*
G01*
X117127Y125722D02*
G75*
G03X118652Y124197I2706J1181D01*
G01*
Y122942*
G75*
G02X115872Y125722I1181J3961*
G01*
X117127*
X118652Y129610D02*
G75*
G03X117127Y128085I1181J-2706D01*
G01*
X115872*
G75*
G02X118652Y130865I3961J-1181*
G01*
Y129610*
X121015Y124197D02*
G75*
G03X122540Y125722I-1181J2706D01*
G01*
X123795*
G75*
G02X121015Y122942I-3961J1181*
G01*
Y124197*
X122540Y128085D02*
G75*
G03X121015Y129610I-2706J-1181D01*
G01*
Y130865*
G75*
G02X123795Y128085I-1181J-3961*
G01*
X122540*
X123278Y144738D02*
G75*
G02X128830I2776D01*
G01*
G75*
G02X123278I-2776*
G01*
X129007Y159247D02*
G75*
G02X122473Y161274I-2953J2026D01*
G01*
G75*
G02X129007Y163300I3581*
G01*
G75*
G02X134912I2953J-2026*
G01*
G75*
G02X141446Y161274I2953J-2026*
G01*
G75*
G02X134912Y159247I-3581*
G01*
G75*
G02X129007I-2953J2026*
G01*
X130759Y118360D02*
G75*
G02X136310I2776D01*
G01*
G75*
G02X130759I-2776*
G01*
X139420Y130565D02*
G75*
G02X144971I2776D01*
G01*
G75*
G02X139420I-2776*
G01*
Y137258D02*
G75*
G02X144971I2776D01*
G01*
G75*
G02X139420I-2776*
G01*
X142570Y124659D02*
G75*
G02X148121I2776D01*
G01*
G75*
G02X142570I-2776*
G01*
X151054Y188793D02*
X159322D01*
Y180526*
X151054*
Y188793*
X153593Y82927D02*
G75*
G02X159144I2776D01*
G01*
G75*
G02X153593I-2776*
G01*
Y93330D02*
G75*
G02X159144I2776D01*
G01*
G75*
G02X153593I-2776*
G01*
Y104187D02*
G75*
G02X159144I2776D01*
G01*
G75*
G02X153593I-2776*
G01*
X155188Y178793D02*
G75*
G02Y170526J-4134D01*
G01*
G75*
G02Y178793J4134*
G01*
X166959Y120495D02*
Y128763D01*
X175227*
Y120495*
X166959*
Y130495D02*
Y138763D01*
X175227*
Y130495*
X166959*
Y140495D02*
Y148763D01*
X175227*
Y140495*
X166959*
Y150495D02*
Y158763D01*
X175227*
Y150495*
X166959*
Y160495D02*
Y168763D01*
X175227*
Y160495*
X166959*
Y170495D02*
Y178763D01*
X175227*
Y170495*
X166959*
X174085Y65585D02*
G75*
G02Y71136J2776D01*
G01*
G75*
G02Y65585J-2776*
G01*
X176959Y113006D02*
X185227D01*
Y104738*
X176959*
Y113006*
Y124629D02*
G75*
G02X185227I4134D01*
G01*
G75*
G02X176959I-4134*
G01*
Y134629D02*
G75*
G02X185227I4134D01*
G01*
G75*
G02X176959I-4134*
G01*
Y144629D02*
G75*
G02X185227I4134D01*
G01*
G75*
G02X176959I-4134*
G01*
Y154629D02*
G75*
G02X185227I4134D01*
G01*
G75*
G02X176959I-4134*
G01*
Y164629D02*
G75*
G02X185227I4134D01*
G01*
G75*
G02X176959I-4134*
G01*
Y174629D02*
G75*
G02X185227I4134D01*
G01*
G75*
G02X176959I-4134*
G01*
X177215Y27809D02*
G75*
G02X182767I2776D01*
G01*
G75*
G02X177215I-2776*
G01*
X181093Y83006D02*
G75*
G02Y74738J-4134D01*
G01*
G75*
G02Y83006J4134*
G01*
Y93006D02*
G75*
G02Y84738J-4134D01*
G01*
G75*
G02Y93006J4134*
G01*
Y103006D02*
G75*
G02Y94738J-4134D01*
G01*
G75*
G02Y103006J4134*
G01*
X188387Y77691D02*
G75*
G03X189912Y76166I2706J1181D01*
G01*
Y74911*
G75*
G02X187132Y77691I1181J3961*
G01*
X188387*
Y87691D02*
G75*
G03X189912Y86166I2706J1181D01*
G01*
Y84911*
G75*
G02X187132Y87691I1181J3961*
G01*
X188387*
Y97691D02*
G75*
G03X189912Y96166I2706J1181D01*
G01*
Y94911*
G75*
G02X187132Y97691I1181J3961*
G01*
X188387*
Y107691D02*
G75*
G03X189912Y106166I2706J1181D01*
G01*
Y104911*
G75*
G02X187132Y107691I1181J3961*
G01*
X188387*
Y123448D02*
G75*
G03X189912Y121923I2706J1181D01*
G01*
Y120668*
G75*
G02X187132Y123448I1181J3961*
G01*
X188387*
Y133448D02*
G75*
G03X189912Y131923I2706J1181D01*
G01*
Y130668*
G75*
G02X187132Y133448I1181J3961*
G01*
X188387*
Y143448D02*
G75*
G03X189912Y141923I2706J1181D01*
G01*
Y140668*
G75*
G02X187132Y143448I1181J3961*
G01*
X188387*
Y153448D02*
G75*
G03X189912Y151923I2706J1181D01*
G01*
Y150668*
G75*
G02X187132Y153448I1181J3961*
G01*
X188387*
Y163448D02*
G75*
G03X189912Y161923I2706J1181D01*
G01*
Y160668*
G75*
G02X187132Y163448I1181J3961*
G01*
X188387*
Y173448D02*
G75*
G03X189912Y171923I2706J1181D01*
G01*
Y170668*
G75*
G02X187132Y173448I1181J3961*
G01*
X188387*
X189912Y81578D02*
G75*
G03X188387Y80053I1181J-2706D01*
G01*
X187132*
G75*
G02X189912Y82833I3961J-1181*
G01*
Y81578*
Y91578D02*
G75*
G03X188387Y90053I1181J-2706D01*
G01*
X187132*
G75*
G02X189912Y92833I3961J-1181*
G01*
Y91578*
Y101578D02*
G75*
G03X188387Y100053I1181J-2706D01*
G01*
X187132*
G75*
G02X189912Y102833I3961J-1181*
G01*
Y101578*
Y111578D02*
G75*
G03X188387Y110053I1181J-2706D01*
G01*
X187132*
G75*
G02X189912Y112833I3961J-1181*
G01*
Y111578*
Y127335D02*
G75*
G03X188387Y125810I1181J-2706D01*
G01*
X187132*
G75*
G02X189912Y128591I3961J-1181*
G01*
Y127335*
Y137335D02*
G75*
G03X188387Y135810I1181J-2706D01*
G01*
X187132*
G75*
G02X189912Y138591I3961J-1181*
G01*
Y137335*
Y147335D02*
G75*
G03X188387Y145810I1181J-2706D01*
G01*
X187132*
G75*
G02X189912Y148591I3961J-1181*
G01*
Y147335*
Y157335D02*
G75*
G03X188387Y155810I1181J-2706D01*
G01*
X187132*
G75*
G02X189912Y158591I3961J-1181*
G01*
Y157335*
Y167335D02*
G75*
G03X188387Y165810I1181J-2706D01*
G01*
X187132*
G75*
G02X189912Y168591I3961J-1181*
G01*
Y167335*
Y177335D02*
G75*
G03X188387Y175810I1181J-2706D01*
G01*
X187132*
G75*
G02X189912Y178591I3961J-1181*
G01*
Y177335*
X192274Y76166D02*
G75*
G03X193800Y77691I-1181J2706D01*
G01*
X195055*
G75*
G02X192274Y74911I-3961J1181*
G01*
Y76166*
Y86166D02*
G75*
G03X193800Y87691I-1181J2706D01*
G01*
X195055*
G75*
G02X192274Y84911I-3961J1181*
G01*
Y86166*
Y96166D02*
G75*
G03X193800Y97691I-1181J2706D01*
G01*
X195055*
G75*
G02X192274Y94911I-3961J1181*
G01*
Y96166*
Y106166D02*
G75*
G03X193800Y107691I-1181J2706D01*
G01*
X195055*
G75*
G02X192274Y104911I-3961J1181*
G01*
Y106166*
Y121923D02*
G75*
G03X193800Y123448I-1181J2706D01*
G01*
X195055*
G75*
G02X192274Y120668I-3961J1181*
G01*
Y121923*
Y131923D02*
G75*
G03X193800Y133448I-1181J2706D01*
G01*
X195055*
G75*
G02X192274Y130668I-3961J1181*
G01*
Y131923*
Y141923D02*
G75*
G03X193800Y143448I-1181J2706D01*
G01*
X195055*
G75*
G02X192274Y140668I-3961J1181*
G01*
Y141923*
Y151923D02*
G75*
G03X193800Y153448I-1181J2706D01*
G01*
X195055*
G75*
G02X192274Y150668I-3961J1181*
G01*
Y151923*
Y161923D02*
G75*
G03X193800Y163448I-1181J2706D01*
G01*
X195055*
G75*
G02X192274Y160668I-3961J1181*
G01*
Y161923*
Y171923D02*
G75*
G03X193800Y173448I-1181J2706D01*
G01*
X195055*
G75*
G02X192274Y170668I-3961J1181*
G01*
Y171923*
X193800Y80053D02*
G75*
G03X192274Y81578I-2706J-1181D01*
G01*
Y82833*
G75*
G02X195055Y80053I-1181J-3961*
G01*
X193800*
Y90053D02*
G75*
G03X192274Y91578I-2706J-1181D01*
G01*
Y92833*
G75*
G02X195055Y90053I-1181J-3961*
G01*
X193800*
Y100053D02*
G75*
G03X192274Y101578I-2706J-1181D01*
G01*
Y102833*
G75*
G02X195055Y100053I-1181J-3961*
G01*
X193800*
Y110053D02*
G75*
G03X192274Y111578I-2706J-1181D01*
G01*
Y112833*
G75*
G02X195055Y110053I-1181J-3961*
G01*
X193800*
Y125810D02*
G75*
G03X192274Y127335I-2706J-1181D01*
G01*
Y128591*
G75*
G02X195055Y125810I-1181J-3961*
G01*
X193800*
Y135810D02*
G75*
G03X192274Y137335I-2706J-1181D01*
G01*
Y138591*
G75*
G02X195055Y135810I-1181J-3961*
G01*
X193800*
Y145810D02*
G75*
G03X192274Y147335I-2706J-1181D01*
G01*
Y148591*
G75*
G02X195055Y145810I-1181J-3961*
G01*
X193800*
Y155810D02*
G75*
G03X192274Y157335I-2706J-1181D01*
G01*
Y158591*
G75*
G02X195055Y155810I-1181J-3961*
G01*
X193800*
Y165810D02*
G75*
G03X192274Y167335I-2706J-1181D01*
G01*
Y168591*
G75*
G02X195055Y165810I-1181J-3961*
G01*
X193800*
Y175810D02*
G75*
G03X192274Y177335I-2706J-1181D01*
G01*
Y178591*
G75*
G02X195055Y175810I-1181J-3961*
G01*
X193800*
X857Y56156D02*
G36*
Y51825D01*
X107137*
G75*
G02X112688I2776*
G01*
X197707*
Y56156*
X123899*
G75*
G02X115768I-4066J748*
G01*
X63899*
G75*
G02X55768I-4066J748*
G01*
X33935*
G75*
G02X33534Y56013I-1583J3819*
G01*
Y56156*
X31172*
Y56013*
G75*
G02X30771Y56156I1181J3962*
G01*
X26487*
Y55841*
X18219*
Y56156*
X9556*
G75*
G02X2394I-3581*
G01*
X857*
G37*
X2394D02*
G36*
G75*
G02X9556I3581D01*
G01*
X18219*
Y62546*
X857*
Y56156*
X2394*
G37*
X30771D02*
G36*
G75*
G02X28392Y58793I1582J3819D01*
G01*
X29647*
G75*
G03X31172Y57268I2706J1181*
G01*
Y56156*
X33534*
Y57268*
G75*
G03X35059Y58793I-1181J2706*
G01*
X36315*
G75*
G02X33935Y56156I-3961J1181*
G01*
X55768*
G75*
G02X55700Y56904I4066J747*
G01*
G75*
G02X63967I4134*
G01*
G75*
G02X63899Y56156I-4134J-1*
G01*
X115768*
G75*
G02X115700Y56904I4066J747*
G01*
G75*
G02X123967I4134*
G01*
G75*
G02X123899Y56156I-4134J-1*
G01*
X197707*
Y62546*
X86366*
G75*
G02X82278I-2044J1878*
G01*
X35590*
G75*
G02X36315Y61156I-3237J-2572*
G01*
X35059*
G75*
G03X33805Y62546I-2706J-1181*
G01*
X30902*
G75*
G03X29647Y61156I1452J-2571*
G01*
X28392*
G75*
G02X29117Y62546I3961J-1181*
G01*
X26487*
Y56156*
X30771*
G37*
X857Y79659D02*
G36*
Y77088D01*
X8219*
Y79659*
X857*
G37*
X8219D02*
G36*
Y82231D01*
X857*
Y79659*
X8219*
G37*
X16487D02*
G36*
Y77088D01*
X19116*
G75*
G02X18219Y79659I3237J2571*
G01*
X16487*
G37*
X18219D02*
G36*
G75*
G02X19116Y82231I4134D01*
G01*
X16487*
Y79659*
X18219*
G37*
X26487D02*
G36*
G75*
G02X25590Y77088I-4134D01*
G01*
X29117*
G75*
G02X28392Y78478I3237J2572*
G01*
X29647*
G75*
G03X30902Y77088I2706J1181*
G01*
X33805*
G75*
G03X35059Y78478I-1452J2571*
G01*
X36315*
G75*
G02X35590Y77088I-3961J1181*
G01*
X55704*
G75*
G02X56752Y79659I4130J-185*
G01*
X26487*
G37*
X56752D02*
G36*
G75*
G02X62915I3081J-2756D01*
G01*
X116752*
G75*
G02X122915I3081J-2756*
G01*
X177035*
G75*
G02X178683Y82231I4058J-788*
G01*
X159056*
G75*
G02X153682I-2687J696*
G01*
X95329*
G75*
G02X90637I-2346J1484*
G01*
X79224*
G75*
G02X77629Y81726I-1595J2271*
G01*
G75*
G02X76033Y82231J2776*
G01*
X35590*
G75*
G02X36315Y80841I-3237J-2572*
G01*
X35059*
G75*
G03X33805Y82231I-2706J-1181*
G01*
X30902*
G75*
G03X29647Y80841I1452J-2571*
G01*
X28392*
G75*
G02X29117Y82231I3961J-1181*
G01*
X25590*
G75*
G02X26487Y79659I-3237J-2571*
G01*
X56752*
G37*
X62915D02*
G36*
G75*
G02X63963Y77088I-3081J-2756D01*
G01*
X68063*
G75*
G02X73022I2480J-1248*
G01*
X115704*
G75*
G02X116752Y79659I4130J-185*
G01*
X62915*
G37*
X122915D02*
G36*
G75*
G02X123963Y77088I-3081J-2756D01*
G01*
X177364*
G75*
G02X177035Y79659I3729J1784*
G01*
X122915*
G37*
X185152D02*
G36*
G75*
G02X184822Y77088I-4058J-787D01*
G01*
X187364*
G75*
G02X187132Y77691I3730J1783*
G01*
X188387*
G75*
G03X188740Y77088I2706J1181*
G01*
X193446*
G75*
G03X193800Y77691I-2353J1783*
G01*
X195055*
G75*
G02X194822Y77088I-3962J1181*
G01*
X197707*
Y79659*
X185152*
G37*
X197707D02*
G36*
Y82231D01*
X193503*
G75*
G02X195055Y80053I-2410J-3359*
G01*
X193800*
G75*
G03X192274Y81578I-2706J-1181*
G01*
Y82231*
X189912*
Y81578*
G75*
G03X188387Y80053I1181J-2706*
G01*
X187132*
G75*
G02X188683Y82231I3961J-1181*
G01*
X183503*
G75*
G02X185152Y79659I-2410J-3359*
G01*
X197707*
G37*
X857Y95407D02*
G36*
Y92836D01*
X9116*
G75*
G02X8219Y95407I3237J2571*
G01*
X857*
G37*
X8219D02*
G36*
G75*
G02X9116Y97979I4134D01*
G01*
X857*
Y95407*
X8219*
G37*
X16487D02*
G36*
G75*
G02X15590Y92836I-4134D01*
G01*
X19116*
G75*
G02X18219Y95407I3237J2571*
G01*
X16487*
G37*
X18219D02*
G36*
G75*
G02X19116Y97979I4134D01*
G01*
X15590*
G75*
G02X16487Y95407I-3237J-2571*
G01*
X18219*
G37*
X26487D02*
G36*
G75*
G02X25590Y92836I-4134D01*
G01*
X29117*
G75*
G02X28392Y94226I3237J2572*
G01*
X29647*
G75*
G03X30902Y92836I2706J1181*
G01*
X33805*
G75*
G03X35059Y94226I-1452J2571*
G01*
X36315*
G75*
G02X35590Y92836I-3961J1181*
G01*
X59095*
G75*
G02X55980Y95407I739J4067*
G01*
X26487*
G37*
X55980D02*
G36*
G75*
G02X55700Y96904I3854J1496D01*
G01*
G75*
G02X55842Y97979I4134J0*
G01*
X35590*
G75*
G02X36315Y96589I-3237J-2572*
G01*
X35059*
G75*
G03X33805Y97979I-2706J-1181*
G01*
X30902*
G75*
G03X29647Y96589I1452J-2571*
G01*
X28392*
G75*
G02X29117Y97979I3961J-1181*
G01*
X25590*
G75*
G02X26487Y95407I-3237J-2571*
G01*
X55980*
G37*
X63687D02*
G36*
G75*
G02X60572Y92836I-3854J1496D01*
G01*
X109095*
G75*
G02X105980Y95407I739J4067*
G01*
X99347*
G75*
G02X96856I-1246J2480*
G01*
X63687*
G37*
X96856D02*
G36*
G75*
G02X95326Y97888I1246J2480D01*
G01*
G75*
G02X95327Y97979I2775J-3*
G01*
X63825*
G75*
G02X63967Y96904I-3992J-1075*
G01*
G75*
G02X63687Y95407I-4134J0*
G01*
X96856*
G37*
X105980D02*
G36*
G75*
G02X105700Y96904I3854J1496D01*
G01*
G75*
G02X105842Y97979I4134J0*
G01*
X100875*
G75*
G02X100877Y97888I-2775J-94*
G01*
G75*
G02X99347Y95407I-2776*
G01*
X105980*
G37*
X113687D02*
G36*
G75*
G02X110572Y92836I-3854J1496D01*
G01*
X119095*
G75*
G02X115980Y95407I739J4067*
G01*
X113687*
G37*
X115980D02*
G36*
G75*
G02X115700Y96904I3854J1496D01*
G01*
G75*
G02X115842Y97979I4134J0*
G01*
X113825*
G75*
G02X113967Y96904I-3992J-1075*
G01*
G75*
G02X113687Y95407I-4134J0*
G01*
X115980*
G37*
X123687D02*
G36*
G75*
G02X120572Y92836I-3854J1496D01*
G01*
X153637*
G75*
G02X153593Y93330I2731J493*
G01*
G75*
G02X154528Y95407I2776*
G01*
X123687*
G37*
X154528D02*
G36*
G75*
G02X158209I1841J-2078D01*
G01*
X178838*
G75*
G02X177057Y97979I2255J3465*
G01*
X123825*
G75*
G02X123967Y96904I-3992J-1075*
G01*
G75*
G02X123687Y95407I-4134J0*
G01*
X154528*
G37*
X158209D02*
G36*
G75*
G02X159144Y93330I-1841J-2078D01*
G01*
G75*
G02X159100Y92836I-2776J-1*
G01*
X179921*
G75*
G02X181093Y93006I1172J-3964*
G01*
G75*
G02X182265Y92836J-4134*
G01*
X197707*
Y95407*
X193348*
G75*
G02X192274Y94911I-2255J3465*
G01*
Y95407*
X189912*
Y94911*
G75*
G02X188838Y95407I1181J3962*
G01*
X183348*
G75*
G02X181093Y94738I-2255J3465*
G01*
G75*
G02X178838Y95407J4134*
G01*
X158209*
G37*
X188838D02*
G36*
G75*
G02X187132Y97691I2255J3465D01*
G01*
X188387*
G75*
G03X189912Y96166I2706J1181*
G01*
Y95407*
X192274*
Y96166*
G75*
G03X193800Y97691I-1181J2706*
G01*
X195055*
G75*
G02X193348Y95407I-3961J1181*
G01*
X197707*
Y97979*
X185130*
G75*
G02X183348Y95407I-4036J893*
G01*
X188838*
G37*
X857Y105407D02*
G36*
Y102836D01*
X8219*
Y105407*
X857*
G37*
X8219D02*
G36*
Y107979D01*
X857*
Y105407*
X8219*
G37*
X16487D02*
G36*
Y102836D01*
X19116*
G75*
G02X18219Y105407I3237J2571*
G01*
X16487*
G37*
X18219D02*
G36*
G75*
G02X19116Y107979I4134D01*
G01*
X16487*
Y105407*
X18219*
G37*
X26487D02*
G36*
G75*
G02X25590Y102836I-4134D01*
G01*
X29117*
G75*
G02X28392Y104226I3237J2572*
G01*
X29647*
G75*
G03X30902Y102836I2706J1181*
G01*
X33805*
G75*
G03X35059Y104226I-1452J2571*
G01*
X36315*
G75*
G02X35590Y102836I-3961J1181*
G01*
X59095*
G75*
G02X55980Y105407I739J4067*
G01*
X26487*
G37*
X55980D02*
G36*
G75*
G02X55700Y106904I3854J1496D01*
G01*
G75*
G02X55842Y107979I4134J0*
G01*
X35590*
G75*
G02X36315Y106589I-3237J-2572*
G01*
X35059*
G75*
G03X33805Y107979I-2706J-1181*
G01*
X30902*
G75*
G03X29647Y106589I1452J-2571*
G01*
X28392*
G75*
G02X29117Y107979I3961J-1181*
G01*
X25590*
G75*
G02X26487Y105407I-3237J-2571*
G01*
X55980*
G37*
X63687D02*
G36*
G75*
G02X60572Y102836I-3854J1496D01*
G01*
X109095*
G75*
G02X105980Y105407I739J4067*
G01*
X78837*
G75*
G02X74846I-1996J1929*
G01*
X63687*
G37*
X74846D02*
G36*
G75*
G02X74066Y107337I1996J1929D01*
G01*
G75*
G02X74141Y107979I2776J0*
G01*
X69177*
G75*
G02X64820I-2178J1720*
G01*
X63825*
G75*
G02X63967Y106904I-3992J-1075*
G01*
G75*
G02X63687Y105407I-4134J0*
G01*
X74846*
G37*
X105980D02*
G36*
G75*
G02X105700Y106904I3854J1496D01*
G01*
G75*
G02X105842Y107979I4134J0*
G01*
X79542*
G75*
G02X79617Y107337I-2701J-642*
G01*
G75*
G02X78837Y105407I-2776*
G01*
X105980*
G37*
X113687D02*
G36*
G75*
G02X110572Y102836I-3854J1496D01*
G01*
X119095*
G75*
G02X115980Y105407I739J4067*
G01*
X113687*
G37*
X115980D02*
G36*
G75*
G02X115700Y106904I3854J1496D01*
G01*
G75*
G02X115842Y107979I4134J0*
G01*
X113825*
G75*
G02X113967Y106904I-3992J-1075*
G01*
G75*
G02X113687Y105407I-4134J0*
G01*
X115980*
G37*
X123687D02*
G36*
G75*
G02X120572Y102836I-3854J1496D01*
G01*
X153944*
G75*
G02X153593Y104187I2425J1351*
G01*
G75*
G02X153876Y105407I2776*
G01*
X123687*
G37*
X153876D02*
G36*
G75*
G02X158862I2493J-1220D01*
G01*
X176959*
Y107979*
X123825*
G75*
G02X123967Y106904I-3992J-1075*
G01*
G75*
G02X123687Y105407I-4134J0*
G01*
X153876*
G37*
X158862D02*
G36*
G75*
G02X159144Y104187I-2493J-1220D01*
G01*
G75*
G02X158794Y102836I-2776*
G01*
X179921*
G75*
G02X181093Y103006I1172J-3964*
G01*
G75*
G02X182265Y102836J-4134*
G01*
X197707*
Y105407*
X193348*
G75*
G02X192274Y104911I-2255J3465*
G01*
Y105407*
X189912*
Y104911*
G75*
G02X188838Y105407I1181J3962*
G01*
X185227*
Y104738*
X176959*
Y105407*
X158862*
G37*
X188838D02*
G36*
G75*
G02X187132Y107691I2255J3465D01*
G01*
X188387*
G75*
G03X189912Y106166I2706J1181*
G01*
Y105407*
X192274*
Y106166*
G75*
G03X193800Y107691I-1181J2706*
G01*
X195055*
G75*
G02X193348Y105407I-3961J1181*
G01*
X197707*
Y107979*
X185227*
Y105407*
X188838*
G37*
X857Y121156D02*
G36*
Y118584D01*
X8219*
Y121156*
X857*
G37*
X8219D02*
G36*
Y123727D01*
X857*
Y121156*
X8219*
G37*
X16487D02*
G36*
Y118584D01*
X19116*
G75*
G02X18219Y121156I3237J2571*
G01*
X16487*
G37*
X18219D02*
G36*
G75*
G02X19116Y123727I4134D01*
G01*
X16487*
Y121156*
X18219*
G37*
X26487D02*
G36*
G75*
G02X25590Y118584I-4134D01*
G01*
X29117*
G75*
G02X28392Y119974I3237J2572*
G01*
X29647*
G75*
G03X30902Y118584I2706J1181*
G01*
X33805*
G75*
G03X35059Y119974I-1452J2571*
G01*
X36315*
G75*
G02X35590Y118584I-3961J1181*
G01*
X56057*
G75*
G02X63610I3777J-1681*
G01*
X116057*
G75*
G02X123610I3777J-1681*
G01*
X130768*
G75*
G02X136301I2767J-224*
G01*
X197707*
Y121156*
X193334*
G75*
G02X192274Y120668I-2241J3474*
G01*
Y121156*
X189912*
Y120668*
G75*
G02X188852Y121156I1181J3961*
G01*
X183335*
G75*
G02X178852I-2241J3474*
G01*
X175227*
Y120495*
X166959*
Y121156*
X94585*
G75*
G02X90594I-1996J1929*
G01*
X26487*
G37*
X90594D02*
G36*
G75*
G02X89814Y123085I1996J1929D01*
G01*
G75*
G02X89889Y123727I2776J0*
G01*
X62479*
G75*
G02X57188I-2645J3177*
G01*
X35590*
G75*
G02X36315Y122337I-3237J-2572*
G01*
X35059*
G75*
G03X33805Y123727I-2706J-1181*
G01*
X30902*
G75*
G03X29647Y122337I1452J-2571*
G01*
X28392*
G75*
G02X29117Y123727I3961J-1181*
G01*
X25590*
G75*
G02X26487Y121156I-3237J-2571*
G01*
X90594*
G37*
X166959D02*
G36*
Y123727D01*
X147959*
G75*
G02X142731I-2614J933*
G01*
X122478*
G75*
G02X121015Y122942I-2645J3177*
G01*
Y123727*
X118652*
Y122942*
G75*
G02X117189Y123727I1181J3961*
G01*
X112479*
G75*
G02X107188I-2645J3177*
G01*
X95290*
G75*
G02X95365Y123085I-2701J-642*
G01*
G75*
G02X94585Y121156I-2776*
G01*
X166959*
G37*
X178852D02*
G36*
G75*
G02X177059Y123727I2241J3474D01*
G01*
X175227*
Y121156*
X178852*
G37*
X188852D02*
G36*
G75*
G02X187132Y123448I2241J3474D01*
G01*
X188387*
G75*
G03X189912Y121923I2706J1181*
G01*
Y121156*
X192274*
Y121923*
G75*
G03X193800Y123448I-1181J2706*
G01*
X195055*
G75*
G02X193334Y121156I-3961J1181*
G01*
X197707*
Y123727*
X185128*
G75*
G02X183335Y121156I-4034J902*
G01*
X188852*
G37*
X857Y136904D02*
G36*
Y134332D01*
X8219*
Y136904*
X857*
G37*
X8219D02*
G36*
Y139475D01*
X857*
Y136904*
X8219*
G37*
X16487D02*
G36*
Y134332D01*
X19116*
G75*
G02X18219Y136904I3237J2571*
G01*
X16487*
G37*
X18219D02*
G36*
G75*
G02X19116Y139475I4134D01*
G01*
X16487*
Y136904*
X18219*
G37*
X26487D02*
G36*
G75*
G02X25590Y134332I-4134D01*
G01*
X29117*
G75*
G02X28392Y135722I3237J2572*
G01*
X29647*
G75*
G03X30902Y134332I2706J1181*
G01*
X33805*
G75*
G03X35059Y135722I-1452J2571*
G01*
X36315*
G75*
G02X35590Y134332I-3961J1181*
G01*
X56597*
G75*
G02X55872Y135722I3237J2572*
G01*
X57127*
G75*
G03X58382Y134332I2706J1181*
G01*
X61285*
G75*
G03X62540Y135722I-1452J2571*
G01*
X63795*
G75*
G02X63070Y134332I-3961J1181*
G01*
X116596*
G75*
G02X115700Y136904I3237J2571*
G01*
X26487*
G37*
X115700D02*
G36*
G75*
G02X116596Y139475I4134D01*
G01*
X63070*
G75*
G02X63795Y138085I-3237J-2572*
G01*
X62540*
G75*
G03X61285Y139475I-2706J-1181*
G01*
X58382*
G75*
G03X57127Y138085I1452J-2571*
G01*
X55872*
G75*
G02X56597Y139475I3961J-1181*
G01*
X35590*
G75*
G02X36315Y138085I-3237J-2572*
G01*
X35059*
G75*
G03X33805Y139475I-2706J-1181*
G01*
X30902*
G75*
G03X29647Y138085I1452J-2571*
G01*
X28392*
G75*
G02X29117Y139475I3961J-1181*
G01*
X25590*
G75*
G02X26487Y136904I-3237J-2571*
G01*
X115700*
G37*
X123967D02*
G36*
G75*
G02X123070Y134332I-4134D01*
G01*
X166959*
Y136904*
X144948*
G75*
G02X139443I-2753J354*
G01*
X123967*
G37*
X139443D02*
G36*
G75*
G02X139420Y137258I2753J355D01*
G01*
G75*
G02X140526Y139475I2776*
G01*
X123070*
G75*
G02X123967Y136904I-3237J-2571*
G01*
X139443*
G37*
X166959D02*
G36*
Y138763D01*
X175227*
Y136904*
X177641*
G75*
G02X184545I3452J-2274*
G01*
X187641*
G75*
G02X189912Y138591I3452J-2274*
G01*
Y137335*
G75*
G03X189210Y136904I1181J-2706*
G01*
X192976*
G75*
G03X192274Y137335I-1883J-2274*
G01*
Y138591*
G75*
G02X194545Y136904I-1181J-3961*
G01*
X197707*
Y139475*
X143866*
G75*
G02X144971Y137258I-1670J-2217*
G01*
G75*
G02X144948Y136904I-2776J1*
G01*
X166959*
G37*
X175227D02*
G36*
Y134332D01*
X176970*
G75*
G02X176959Y134629I4123J296*
G01*
G75*
G02X177641Y136904I4134*
G01*
X175227*
G37*
X184545D02*
G36*
G75*
G02X185227Y134629I-3452J-2274D01*
G01*
G75*
G02X185217Y134332I-4135J0*
G01*
X197707*
Y136904*
X194545*
G75*
G02X195055Y135810I-3452J-2274*
G01*
X193800*
G75*
G03X192976Y136904I-2706J-1181*
G01*
X189210*
G75*
G03X188387Y135810I1883J-2274*
G01*
X187132*
G75*
G02X187641Y136904I3962J-1181*
G01*
X184545*
G37*
X857Y183715D02*
G36*
Y181143D01*
X8219*
Y183715*
X857*
G37*
X8219D02*
G36*
Y186286D01*
X857*
Y183715*
X8219*
G37*
X16487D02*
G36*
Y181143D01*
X19117*
G75*
G02X18392Y182533I3237J2572*
G01*
X19647*
G75*
G03X20902Y181143I2706J1181*
G01*
X23805*
G75*
G03X25059Y182533I-1452J2571*
G01*
X26315*
G75*
G02X25590Y181143I-3961J1181*
G01*
X29116*
G75*
G02X28219Y183715I3237J2571*
G01*
X16487*
G37*
X28219D02*
G36*
G75*
G02X29116Y186286I4134D01*
G01*
X25590*
G75*
G02X26315Y184896I-3237J-2572*
G01*
X25059*
G75*
G03X23805Y186286I-2706J-1181*
G01*
X20902*
G75*
G03X19647Y184896I1452J-2571*
G01*
X18392*
G75*
G02X19117Y186286I3961J-1181*
G01*
X16487*
Y183715*
X28219*
G37*
X36487D02*
G36*
G75*
G02X35590Y181143I-4134D01*
G01*
X39116*
G75*
G02X38219Y183715I3237J2571*
G01*
X36487*
G37*
X38219D02*
G36*
G75*
G02X39116Y186286I4134D01*
G01*
X35590*
G75*
G02X36487Y183715I-3237J-2571*
G01*
X38219*
G37*
X46487D02*
G36*
G75*
G02X45590Y181143I-4134D01*
G01*
X66377*
G75*
G02X66192Y182140I2591J996*
G01*
G75*
G02X66682Y183715I2776*
G01*
X46487*
G37*
X66682D02*
G36*
G75*
G02X71253I2285J-1575D01*
G01*
X80149*
G75*
G02X79760Y184502I2991J1969*
G01*
X81051*
G75*
G03X81767Y183715I2089J1181*
G01*
X84514*
G75*
G03X85230Y184502I-1373J1969*
G01*
X86521*
G75*
G02X86132Y183715I-3380J1181*
G01*
X108796*
G75*
G02X107906Y186077I2691J2362*
G01*
G75*
G02X107912Y186286I3581J-3*
G01*
X45590*
G75*
G02X46487Y183715I-3237J-2571*
G01*
X66682*
G37*
X71253D02*
G36*
G75*
G02X71743Y182140I-2285J-1575D01*
G01*
G75*
G02X71558Y181143I-2776*
G01*
X151054*
Y183715*
X114178*
G75*
G02X108796I-2691J2362*
G01*
X86132*
G75*
G02X84322Y182302I-2991J1969*
G01*
Y183594*
G75*
G03X84514Y183715I-1181J2090*
G01*
X81767*
G75*
G03X81959Y183594I1373J1969*
G01*
Y182302*
G75*
G02X80149Y183715I1181J3381*
G01*
X71253*
G37*
X151054D02*
G36*
Y186286D01*
X115062*
G75*
G02X115068Y186077I-3576J-206*
G01*
G75*
G02X114178Y183715I-3581J0*
G01*
X151054*
G37*
X159322D02*
G36*
Y181143D01*
X197707*
Y183715*
X159322*
G37*
X197707D02*
G36*
Y186286D01*
X159322*
Y183715*
X197707*
G37*
X857Y154974D02*
G36*
Y152058D01*
X99299*
G75*
G02X98851Y153793I3133J1735*
G01*
G75*
G02X99051Y154974I3581*
G01*
X89569*
G75*
G02X89046Y154743I-1704J3150*
G01*
Y154974*
X86684*
Y154743*
G75*
G02X86161Y154974I1181J3381*
G01*
X14656*
G75*
G02X9105I-2776*
G01*
X857*
G37*
X9105D02*
G36*
G75*
G02X10223Y157200I2776D01*
G01*
X857*
Y154974*
X9105*
G37*
X86161D02*
G36*
G75*
G02X84484Y156943I1704J3150D01*
G01*
X85776*
G75*
G03X86684Y156035I2089J1181*
G01*
Y154974*
X89046*
Y156035*
G75*
G03X89954Y156943I-1181J2089*
G01*
X91246*
G75*
G02X89569Y154974I-3381J1181*
G01*
X99051*
G75*
G02X101329Y157200I3381J-1181*
G01*
X13539*
G75*
G02X14656Y154974I-1658J-2226*
G01*
X86161*
G37*
X105813D02*
G36*
G75*
G02X106013Y153793I-3381J-1181D01*
G01*
G75*
G02X105565Y152058I-3581J0*
G01*
X166959*
Y154974*
X105813*
G37*
X166959D02*
G36*
Y157200D01*
X112872*
G75*
G02X107740I-2566J2498*
G01*
X103535*
G75*
G02X105813Y154974I-1103J-3407*
G01*
X166959*
G37*
X175227D02*
G36*
Y152058D01*
X177856*
G75*
G02X176959Y154629I3237J2571*
G01*
G75*
G02X176974Y154974I4133J-2*
G01*
X175227*
G37*
X176974D02*
G36*
G75*
G02X177856Y157200I4119J-345D01*
G01*
X175227*
Y154974*
X176974*
G37*
X185213D02*
G36*
G75*
G02X185227Y154629I-4119J-347D01*
G01*
G75*
G02X184330Y152058I-4134*
G01*
X187857*
G75*
G02X187132Y153448I3237J2572*
G01*
X188387*
G75*
G03X189642Y152058I2706J1181*
G01*
X192545*
G75*
G03X193800Y153448I-1452J2571*
G01*
X195055*
G75*
G02X194330Y152058I-3961J1181*
G01*
X197707*
Y154974*
X185213*
G37*
X197707D02*
G36*
Y157200D01*
X194330*
G75*
G02X195055Y155810I-3237J-2572*
G01*
X193800*
G75*
G03X192545Y157200I-2706J-1181*
G01*
X189642*
G75*
G03X188387Y155810I1452J-2571*
G01*
X187132*
G75*
G02X187857Y157200I3961J-1181*
G01*
X184330*
G75*
G02X185213Y154974I-3237J-2571*
G01*
X197707*
G37*
X857Y45132D02*
G36*
Y40014D01*
X57110*
G75*
G02X62557I2723J-3110*
G01*
X79971*
G75*
G02X85522I2776*
G01*
X117110*
G75*
G02X122557I2723J-3110*
G01*
X197707*
Y45132*
X123569*
G75*
G02X116098I-3735J1772*
G01*
X96409*
G75*
G02X93494I-1457J2362*
G01*
X63569*
G75*
G02X56098I-3735J1772*
G01*
X19971*
G75*
G02X14420I-2776*
G01*
X857*
G37*
X14420D02*
G36*
G75*
G02X19971I2776D01*
G01*
X56098*
G75*
G02X55700Y46904I3735J1772*
G01*
G75*
G02X63967I4134*
G01*
G75*
G02X63569Y45132I-4134*
G01*
X93494*
G75*
G02X92176Y47494I1457J2362*
G01*
G75*
G02X97727I2776*
G01*
G75*
G02X96409Y45132I-2776*
G01*
X116098*
G75*
G02X115700Y46904I3735J1772*
G01*
G75*
G02X123967I4134*
G01*
G75*
G02X123569Y45132I-4134*
G01*
X197707*
Y51825*
X112688*
G75*
G02X107137I-2776*
G01*
X857*
Y45132*
X14420*
G37*
X857Y181143D02*
G36*
Y177200D01*
X151927*
G75*
G02X155188Y178793I3261J-2541*
G01*
G75*
G02X158448Y177200J-4134*
G01*
X166959*
Y178763*
X175227*
Y177200*
X177856*
G75*
G02X184330I3237J-2571*
G01*
X187857*
G75*
G02X189912Y178591I3237J-2571*
G01*
Y177335*
G75*
G03X189642Y177200I1182J-2706*
G01*
X192545*
G75*
G03X192274Y177335I-1452J-2570*
G01*
Y178591*
G75*
G02X194330Y177200I-1181J-3961*
G01*
X197707*
Y181143*
X159322*
Y180526*
X151054*
Y181143*
X71558*
G75*
G02X66377I-2591J996*
G01*
X45590*
G75*
G02X39116I-3237J2571*
G01*
X35590*
G75*
G02X29116I-3237J2571*
G01*
X25590*
G75*
G02X23534Y179753I-3237J2571*
G01*
Y181008*
G75*
G03X23805Y181143I-1182J2706*
G01*
X20902*
G75*
G03X21172Y181008I1452J2570*
G01*
Y179753*
G75*
G02X19117Y181143I1181J3961*
G01*
X16487*
Y179581*
X8219*
Y181143*
X857*
G37*
X8219Y186286D02*
G36*
Y187848D01*
X16487*
Y186286*
X19117*
G75*
G02X21172Y187676I3237J-2571*
G01*
Y186421*
G75*
G03X20902Y186286I1182J-2706*
G01*
X23805*
G75*
G03X23534Y186421I-1452J-2570*
G01*
Y187676*
G75*
G02X25590Y186286I-1181J-3961*
G01*
X29116*
G75*
G02X35590I3237J-2571*
G01*
X39116*
G75*
G02X45590I3237J-2571*
G01*
X107912*
G75*
G02X108796Y188439I3575J-209*
G01*
X85427*
G75*
G02X86521Y186864I-2287J-2756*
G01*
X85230*
G75*
G03X84322Y187772I-2089J-1181*
G01*
Y188439*
X81959*
Y187772*
G75*
G03X81051Y186864I1181J-2089*
G01*
X79760*
G75*
G02X80854Y188439I3381J-1181*
G01*
X857*
Y186286*
X8219*
G37*
X151054D02*
G36*
Y188439D01*
X114179*
G75*
G02X115062Y186286I-2692J-2362*
G01*
X151054*
G37*
X197707D02*
G36*
Y188439D01*
X159322*
Y186286*
X197707*
G37*
X857Y77088D02*
G36*
Y73872D01*
X57023*
G75*
G02X55700Y76904I2811J3031*
G01*
G75*
G02X55704Y77088I4134J4*
G01*
X35590*
G75*
G02X33534Y75698I-3237J2571*
G01*
Y76953*
G75*
G03X33805Y77088I-1182J2706*
G01*
X30902*
G75*
G03X31172Y76953I1452J2570*
G01*
Y75698*
G75*
G02X29117Y77088I1181J3961*
G01*
X25590*
G75*
G02X19116I-3237J2571*
G01*
X16487*
Y75526*
X8219*
Y77088*
X857*
G37*
X63963D02*
G36*
G75*
G02X63967Y76904I-4131J-180D01*
G01*
G75*
G02X62644Y73872I-4134*
G01*
X68585*
G75*
G02X67767Y75841I1957J1969*
G01*
G75*
G02X68063Y77088I2776J0*
G01*
X63963*
G37*
X73022D02*
G36*
G75*
G02X73318Y75841I-2480J-1247D01*
G01*
G75*
G02X72499Y73872I-2776*
G01*
X90601*
G75*
G02X96152I2776*
G01*
X117023*
G75*
G02X115700Y76904I2811J3031*
G01*
G75*
G02X115704Y77088I4134J4*
G01*
X73022*
G37*
X123963D02*
G36*
G75*
G02X123967Y76904I-4131J-180D01*
G01*
G75*
G02X122644Y73872I-4134*
G01*
X197707*
Y77088*
X194822*
G75*
G02X192274Y74911I-3729J1784*
G01*
Y76166*
G75*
G03X193446Y77088I-1181J2706*
G01*
X188740*
G75*
G03X189912Y76166I2353J1784*
G01*
Y74911*
G75*
G02X187364Y77088I1181J3961*
G01*
X184822*
G75*
G02X181093Y74738I-3729J1784*
G01*
G75*
G02X177364Y77088J4134*
G01*
X123963*
G37*
X857Y92836D02*
G36*
Y91443D01*
X11181*
G75*
G02X9116Y92836I1172J3964*
G01*
X857*
G37*
X15590D02*
G36*
G75*
G02X13525Y91443I-3237J2571D01*
G01*
X21181*
G75*
G02X19116Y92836I1172J3964*
G01*
X15590*
G37*
X25590D02*
G36*
G75*
G02X23525Y91443I-3237J2571D01*
G01*
X154333*
G75*
G02X153637Y92836I2036J1887*
G01*
X120572*
G75*
G02X119095I-739J4067*
G01*
X110572*
G75*
G02X109095I-739J4067*
G01*
X60572*
G75*
G02X59095I-739J4067*
G01*
X35590*
G75*
G02X33534Y91446I-3237J2571*
G01*
Y92701*
G75*
G03X33805Y92836I-1182J2706*
G01*
X30902*
G75*
G03X31172Y92701I1452J2570*
G01*
Y91446*
G75*
G02X29117Y92836I1181J3961*
G01*
X25590*
G37*
X159100D02*
G36*
G75*
G02X158405Y91443I-2731J494D01*
G01*
X177856*
G75*
G02X179921Y92836I3237J-2571*
G01*
X159100*
G37*
X182265D02*
G36*
G75*
G02X184330Y91443I-1172J-3964D01*
G01*
X187857*
G75*
G02X189912Y92833I3237J-2571*
G01*
Y91578*
G75*
G03X189642Y91443I1182J-2706*
G01*
X192545*
G75*
G03X192274Y91578I-1452J-2570*
G01*
Y92833*
G75*
G02X194330Y91443I-1181J-3961*
G01*
X197707*
Y92836*
X182265*
G37*
X857Y102836D02*
G36*
Y101443D01*
X8219*
Y102836*
X857*
G37*
X16487D02*
G36*
Y101443D01*
X21181*
G75*
G02X19116Y102836I1172J3964*
G01*
X16487*
G37*
X25590D02*
G36*
G75*
G02X23525Y101443I-3237J2571D01*
G01*
X155949*
G75*
G02X153944Y102836I420J2744*
G01*
X120572*
G75*
G02X119095I-739J4067*
G01*
X110572*
G75*
G02X109095I-739J4067*
G01*
X60572*
G75*
G02X59095I-739J4067*
G01*
X35590*
G75*
G02X33534Y101446I-3237J2571*
G01*
Y102701*
G75*
G03X33805Y102836I-1182J2706*
G01*
X30902*
G75*
G03X31172Y102701I1452J2570*
G01*
Y101446*
G75*
G02X29117Y102836I1181J3961*
G01*
X25590*
G37*
X158794D02*
G36*
G75*
G02X156789Y101443I-2425J1351D01*
G01*
X177856*
G75*
G02X179921Y102836I3237J-2571*
G01*
X158794*
G37*
X182265D02*
G36*
G75*
G02X184330Y101443I-1172J-3964D01*
G01*
X187857*
G75*
G02X189912Y102833I3237J-2571*
G01*
Y101578*
G75*
G03X189642Y101443I1182J-2706*
G01*
X192545*
G75*
G03X192274Y101578I-1452J-2570*
G01*
Y102833*
G75*
G02X194330Y101443I-1181J-3961*
G01*
X197707*
Y102836*
X182265*
G37*
X857Y118584D02*
G36*
Y115604D01*
X55909*
G75*
G02X55700Y116904I3924J1299*
G01*
G75*
G02X56057Y118584I4134*
G01*
X35590*
G75*
G02X33534Y117194I-3237J2571*
G01*
Y118449*
G75*
G03X33805Y118584I-1182J2706*
G01*
X30902*
G75*
G03X31172Y118449I1452J2570*
G01*
Y117194*
G75*
G02X29117Y118584I1181J3961*
G01*
X25590*
G75*
G02X19116I-3237J2571*
G01*
X16487*
Y117022*
X8219*
Y118584*
X857*
G37*
X63610D02*
G36*
G75*
G02X63967Y116904I-3777J-1681D01*
G01*
G75*
G02X63758Y115604I-4134*
G01*
X69341*
G75*
G02X74893I2776*
G01*
X115909*
G75*
G02X115700Y116904I3924J1299*
G01*
G75*
G02X116057Y118584I4134*
G01*
X63610*
G37*
X123610D02*
G36*
G75*
G02X123967Y116904I-3777J-1681D01*
G01*
G75*
G02X123758Y115604I-4134*
G01*
X133204*
G75*
G02X130759Y118360I330J2756*
G01*
G75*
G02X130768Y118584I2775*
G01*
X123610*
G37*
X136301D02*
G36*
G75*
G02X136310Y118360I-2767J-224D01*
G01*
G75*
G02X133864Y115604I-2776*
G01*
X197707*
Y118584*
X136301*
G37*
X857Y134332D02*
G36*
Y132058D01*
X139856*
G75*
G02X144535I2340J-1493*
G01*
X166959*
Y134332*
X123070*
G75*
G02X116596I-3237J2571*
G01*
X63070*
G75*
G02X61015Y132942I-3237J2571*
G01*
Y134197*
G75*
G03X61285Y134332I-1182J2706*
G01*
X58382*
G75*
G03X58652Y134197I1452J2570*
G01*
Y132942*
G75*
G02X56597Y134332I1181J3961*
G01*
X35590*
G75*
G02X33534Y132942I-3237J2571*
G01*
Y134197*
G75*
G03X33805Y134332I-1182J2706*
G01*
X30902*
G75*
G03X31172Y134197I1452J2570*
G01*
Y132942*
G75*
G02X29117Y134332I1181J3961*
G01*
X25590*
G75*
G02X19116I-3237J2571*
G01*
X16487*
Y132770*
X8219*
Y134332*
X857*
G37*
X175227D02*
G36*
Y132058D01*
X177856*
G75*
G02X176970Y134332I3237J2571*
G01*
X175227*
G37*
X185217D02*
G36*
G75*
G02X184330Y132058I-4123J297D01*
G01*
X187857*
G75*
G02X187132Y133448I3237J2572*
G01*
X188387*
G75*
G03X189642Y132058I2706J1181*
G01*
X192545*
G75*
G03X193800Y133448I-1452J2571*
G01*
X195055*
G75*
G02X194330Y132058I-3961J1181*
G01*
X197707*
Y134332*
X185217*
G37*
X18219Y62546D02*
G36*
Y64108D01*
X26487*
Y62546*
X29117*
G75*
G02X31172Y63936I3237J-2571*
G01*
Y62681*
G75*
G03X30902Y62546I1182J-2706*
G01*
X33805*
G75*
G03X33534Y62681I-1452J-2570*
G01*
Y63936*
G75*
G02X35590Y62546I-1181J-3961*
G01*
X82278*
G75*
G02X81546Y64423I2044J1878*
G01*
G75*
G02X83076Y66904I2776*
G01*
X71406*
G75*
G02X69678I-864J2638*
G01*
X63967*
G75*
G02X55700I-4134*
G01*
X857*
Y62546*
X18219*
G37*
X197707D02*
G36*
Y66904D01*
X176448*
G75*
G02X174085Y65585I-2363J1457*
G01*
G75*
G02X171723Y66904J2776*
G01*
X123967*
G75*
G02X115700I-4134*
G01*
X85567*
G75*
G02X87097Y64423I-1246J-2480*
G01*
G75*
G02X86366Y62546I-2776*
G01*
X197707*
G37*
X8219Y82231D02*
G36*
Y83793D01*
X16487*
Y82231*
X19116*
G75*
G02X25590I3237J-2571*
G01*
X29117*
G75*
G02X31172Y83621I3237J-2571*
G01*
Y82366*
G75*
G03X30902Y82231I1182J-2706*
G01*
X33805*
G75*
G03X33534Y82366I-1452J-2570*
G01*
Y83621*
G75*
G02X35590Y82231I-1181J-3961*
G01*
X76033*
G75*
G02X76237Y86904I1595J2271*
G01*
X63967*
G75*
G02X55700I-4134*
G01*
X857*
Y82231*
X8219*
G37*
X90637D02*
G36*
G75*
G02X90207Y83715I2346J1484D01*
G01*
G75*
G02X95759I2776*
G01*
G75*
G02X95329Y82231I-2776*
G01*
X153682*
G75*
G02X153593Y82927I2687J697*
G01*
G75*
G02X159144I2776*
G01*
G75*
G02X159056Y82231I-2776J1*
G01*
X178683*
G75*
G02X181093Y83006I2410J-3359*
G01*
G75*
G02X183503Y82231J-4134*
G01*
X188683*
G75*
G02X189912Y82833I2410J-3359*
G01*
Y82231*
X192274*
Y82833*
G75*
G02X193503Y82231I-1181J-3961*
G01*
X197707*
Y86904*
X194728*
G75*
G02X192274Y84911I-3635J1969*
G01*
Y86166*
G75*
G03X193294Y86904I-1181J2706*
G01*
X188893*
G75*
G03X189912Y86166I2201J1969*
G01*
Y84911*
G75*
G02X187458Y86904I1181J3961*
G01*
X184728*
G75*
G02X181093Y84738I-3635J1969*
G01*
G75*
G02X177458Y86904J4134*
G01*
X123967*
G75*
G02X115700I-4134*
G01*
X113967*
G75*
G02X105700I-4134*
G01*
X79020*
G75*
G02X79224Y82231I-1391J-2402*
G01*
X90637*
G37*
X9116Y97979D02*
G36*
G75*
G02X15590I3237J-2571D01*
G01*
X19116*
G75*
G02X25590I3237J-2571*
G01*
X29117*
G75*
G02X31172Y99369I3237J-2571*
G01*
Y98114*
G75*
G03X30902Y97979I1182J-2706*
G01*
X33805*
G75*
G03X33534Y98114I-1452J-2570*
G01*
Y99369*
G75*
G02X35590Y97979I-1181J-3961*
G01*
X55842*
G75*
G02X63825I3992J-1075*
G01*
X95327*
G75*
G02X100875I2774J-91*
G01*
X105842*
G75*
G02X113825I3992J-1075*
G01*
X115842*
G75*
G02X123825I3992J-1075*
G01*
X177057*
G75*
G02X177856Y101443I4036J893*
G01*
X156789*
G75*
G02X155949I-420J2744*
G01*
X23525*
G75*
G02X21181I-1172J3964*
G01*
X16487*
Y101274*
X8219*
Y101443*
X857*
Y97979*
X9116*
G37*
X197707D02*
G36*
Y101443D01*
X194330*
G75*
G02X195055Y100053I-3237J-2572*
G01*
X193800*
G75*
G03X192545Y101443I-2706J-1181*
G01*
X189642*
G75*
G03X188387Y100053I1452J-2571*
G01*
X187132*
G75*
G02X187857Y101443I3961J-1181*
G01*
X184330*
G75*
G02X185130Y97979I-3237J-2571*
G01*
X197707*
G37*
X8219Y107979D02*
G36*
Y109541D01*
X16487*
Y107979*
X19116*
G75*
G02X25590I3237J-2571*
G01*
X29117*
G75*
G02X31172Y109369I3237J-2571*
G01*
Y108114*
G75*
G03X30902Y107979I1182J-2706*
G01*
X33805*
G75*
G03X33534Y108114I-1452J-2570*
G01*
Y109369*
G75*
G02X35590Y107979I-1181J-3961*
G01*
X55842*
G75*
G02X63825I3992J-1075*
G01*
X64820*
G75*
G02X64223Y109699I2178J1720*
G01*
G75*
G02X64840Y111443I2776J0*
G01*
X857*
Y107979*
X8219*
G37*
X74141D02*
G36*
G75*
G02X79542I2700J-642D01*
G01*
X105842*
G75*
G02X113825I3992J-1075*
G01*
X115842*
G75*
G02X123825I3992J-1075*
G01*
X176959*
Y111443*
X69157*
G75*
G02X69774Y109699I-2159J-1745*
G01*
G75*
G02X69177Y107979I-2776*
G01*
X74141*
G37*
X197707D02*
G36*
Y111443D01*
X194330*
G75*
G02X195055Y110053I-3237J-2572*
G01*
X193800*
G75*
G03X192545Y111443I-2706J-1181*
G01*
X189642*
G75*
G03X188387Y110053I1452J-2571*
G01*
X187132*
G75*
G02X187857Y111443I3961J-1181*
G01*
X185227*
Y107979*
X197707*
G37*
X8219Y123727D02*
G36*
Y125289D01*
X16487*
Y123727*
X19116*
G75*
G02X25590I3237J-2571*
G01*
X29117*
G75*
G02X31172Y125117I3237J-2571*
G01*
Y123862*
G75*
G03X30902Y123727I1182J-2706*
G01*
X33805*
G75*
G03X33534Y123862I-1452J-2570*
G01*
Y125117*
G75*
G02X35590Y123727I-1181J-3961*
G01*
X57188*
G75*
G02X55700Y126904I2645J3177*
G01*
G75*
G02X55710Y127200I4134J0*
G01*
X857*
Y123727*
X8219*
G37*
X89889D02*
G36*
G75*
G02X95290I2700J-642D01*
G01*
X107188*
G75*
G02X105700Y126904I2645J3177*
G01*
G75*
G02X105710Y127200I4134J0*
G01*
X63957*
G75*
G02X63967Y126904I-4124J-296*
G01*
G75*
G02X62479Y123727I-4134*
G01*
X89889*
G37*
X117189D02*
G36*
G75*
G02X115872Y125722I2645J3177D01*
G01*
X117127*
G75*
G03X118652Y124197I2706J1181*
G01*
Y123727*
X121015*
Y124197*
G75*
G03X122540Y125722I-1181J2706*
G01*
X123795*
G75*
G02X122478Y123727I-3961J1181*
G01*
X142731*
G75*
G02X142570Y124659I2614J933*
G01*
G75*
G02X144228Y127200I2776*
G01*
X113957*
G75*
G02X113967Y126904I-4124J-296*
G01*
G75*
G02X112479Y123727I-4134*
G01*
X117189*
G37*
X166959D02*
G36*
Y127200D01*
X146462*
G75*
G02X148121Y124659I-1117J-2541*
G01*
G75*
G02X147959Y123727I-2776*
G01*
X166959*
G37*
X177059D02*
G36*
G75*
G02X176959Y124629I4034J902D01*
G01*
G75*
G02X177856Y127200I4134*
G01*
X175227*
Y123727*
X177059*
G37*
X197707D02*
G36*
Y127200D01*
X194330*
G75*
G02X195055Y125810I-3237J-2572*
G01*
X193800*
G75*
G03X192545Y127200I-2706J-1181*
G01*
X189642*
G75*
G03X188387Y125810I1452J-2571*
G01*
X187132*
G75*
G02X187857Y127200I3961J-1181*
G01*
X184330*
G75*
G02X185227Y124629I-3237J-2571*
G01*
G75*
G02X185128Y123727I-4134J0*
G01*
X197707*
G37*
X8219Y139475D02*
G36*
Y141037D01*
X16487*
Y139475*
X19116*
G75*
G02X25590I3237J-2571*
G01*
X29117*
G75*
G02X31172Y140865I3237J-2571*
G01*
Y139610*
G75*
G03X30902Y139475I1182J-2706*
G01*
X33805*
G75*
G03X33534Y139610I-1452J-2570*
G01*
Y140865*
G75*
G02X35590Y139475I-1181J-3961*
G01*
X56597*
G75*
G02X58652Y140865I3237J-2571*
G01*
Y139610*
G75*
G03X58382Y139475I1182J-2706*
G01*
X61285*
G75*
G03X61015Y139610I-1452J-2570*
G01*
Y140865*
G75*
G02X63070Y139475I-1181J-3961*
G01*
X116596*
G75*
G02X123070I3237J-2571*
G01*
X140526*
G75*
G02X143866I1670J-2217*
G01*
X197707*
Y142058*
X194330*
G75*
G02X192274Y140668I-3237J2571*
G01*
Y141923*
G75*
G03X192545Y142058I-1182J2706*
G01*
X189642*
G75*
G03X189912Y141923I1452J2570*
G01*
Y140668*
G75*
G02X187857Y142058I1181J3961*
G01*
X184330*
G75*
G02X177856I-3237J2571*
G01*
X175227*
Y140495*
X166959*
Y142058*
X126775*
G75*
G02X125333I-721J2680*
G01*
X857*
Y139475*
X8219*
G37*
X857Y4974D02*
G36*
Y250D01*
X197707*
Y4974*
X123490*
G75*
G02X116177I-3656J1929*
G01*
X113490*
G75*
G02X106177I-3656J1929*
G01*
X103490*
G75*
G02X96177I-3656J1929*
G01*
X93489*
G75*
G02X91015Y2942I-3656J1929*
G01*
Y4197*
G75*
G03X92069Y4974I-1181J2706*
G01*
X87598*
G75*
G03X88652Y4197I2235J1929*
G01*
Y2942*
G75*
G02X86178Y4974I1181J3961*
G01*
X83490*
G75*
G02X76177I-3656J1929*
G01*
X73490*
G75*
G02X66177I-3656J1929*
G01*
X63490*
G75*
G02X56177I-3656J1929*
G01*
X37885*
G75*
G02X32333I-2776*
G01*
X857*
G37*
X32333D02*
G36*
G75*
G02X37885I2776D01*
G01*
X56177*
G75*
G02X55700Y6904I3656J1929*
G01*
G75*
G02X56596Y9475I4134*
G01*
X857*
Y4974*
X32333*
G37*
X66177D02*
G36*
G75*
G02X65700Y6904I3656J1929D01*
G01*
G75*
G02X66596Y9475I4134*
G01*
X63070*
G75*
G02X63967Y6904I-3237J-2571*
G01*
G75*
G02X63490Y4974I-4134J0*
G01*
X66177*
G37*
X76177D02*
G36*
G75*
G02X75700Y6904I3656J1929D01*
G01*
G75*
G02X76596Y9475I4134*
G01*
X73070*
G75*
G02X73967Y6904I-3237J-2571*
G01*
G75*
G02X73490Y4974I-4134J0*
G01*
X76177*
G37*
X86178D02*
G36*
G75*
G02X85872Y5722I3656J1930D01*
G01*
X87127*
G75*
G03X87598Y4974I2706J1181*
G01*
X92069*
G75*
G03X92540Y5722I-2235J1929*
G01*
X93795*
G75*
G02X93489Y4974I-3961J1181*
G01*
X96177*
G75*
G02X95700Y6904I3656J1929*
G01*
G75*
G02X96596Y9475I4134*
G01*
X93070*
G75*
G02X93795Y8085I-3237J-2572*
G01*
X92540*
G75*
G03X91285Y9475I-2706J-1181*
G01*
X88382*
G75*
G03X87127Y8085I1452J-2571*
G01*
X85872*
G75*
G02X86597Y9475I3961J-1181*
G01*
X83070*
G75*
G02X83967Y6904I-3237J-2571*
G01*
G75*
G02X83490Y4974I-4134J0*
G01*
X86178*
G37*
X106177D02*
G36*
G75*
G02X105700Y6904I3656J1929D01*
G01*
G75*
G02X106596Y9475I4134*
G01*
X103070*
G75*
G02X103967Y6904I-3237J-2571*
G01*
G75*
G02X103490Y4974I-4134J0*
G01*
X106177*
G37*
X116177D02*
G36*
G75*
G02X115700Y6904I3656J1929D01*
G01*
G75*
G02X116596Y9475I4134*
G01*
X113070*
G75*
G02X113967Y6904I-3237J-2571*
G01*
G75*
G02X113490Y4974I-4134J0*
G01*
X116177*
G37*
X197707D02*
G36*
Y9475D01*
X123070*
G75*
G02X123967Y6904I-3237J-2571*
G01*
G75*
G02X123490Y4974I-4134J0*
G01*
X197707*
G37*
X857Y16904D02*
G36*
Y9475D01*
X56596*
G75*
G02X63070I3237J-2571*
G01*
X66596*
G75*
G02X73070I3237J-2571*
G01*
X76596*
G75*
G02X83070I3237J-2571*
G01*
X86597*
G75*
G02X88652Y10865I3237J-2571*
G01*
Y9610*
G75*
G03X88382Y9475I1182J-2706*
G01*
X91285*
G75*
G03X91015Y9610I-1452J-2570*
G01*
Y10865*
G75*
G02X93070Y9475I-1181J-3961*
G01*
X96596*
G75*
G02X103070I3237J-2571*
G01*
X106596*
G75*
G02X113070I3237J-2571*
G01*
X116596*
G75*
G02X123070I3237J-2571*
G01*
X197707*
Y16904*
X123967*
G75*
G02X115700I-4134*
G01*
X63967*
G75*
G02X55700I-4134*
G01*
X857*
G37*
X55700D02*
G36*
G75*
G02X63967I4134D01*
G01*
X115700*
G75*
G02X123967I4134*
G01*
X197707*
Y26904*
X182615*
G75*
G02X177367I-2624J906*
G01*
X123967*
G75*
G02X115700I-4134*
G01*
X63967*
G75*
G02X55700I-4134*
G01*
X857*
Y16904*
X55700*
G37*
Y26904D02*
G36*
G75*
G02X63967I4134D01*
G01*
X115700*
G75*
G02X123967I4134*
G01*
X177367*
G75*
G02X177215Y27809I2624J906*
G01*
G75*
G02X182767I2776*
G01*
G75*
G02X182615Y26904I-2776J0*
G01*
X197707*
Y36904*
X123967*
G75*
G02X115700I-4134*
G01*
X63967*
G75*
G02X55700I-4134*
G01*
X857*
Y26904*
X55700*
G37*
Y36904D02*
G36*
G75*
G02X57110Y40014I4134D01*
G01*
X857*
Y36904*
X55700*
G37*
X115700D02*
G36*
G75*
G02X117110Y40014I4134D01*
G01*
X85522*
G75*
G02X79971I-2776*
G01*
X62557*
G75*
G02X63967Y36904I-2723J-3110*
G01*
X115700*
G37*
X197707D02*
G36*
Y40014D01*
X122557*
G75*
G02X123967Y36904I-2723J-3110*
G01*
X197707*
G37*
X55700Y66904D02*
G36*
G75*
G02X63967I4134D01*
G01*
X69678*
G75*
G02X67767Y69541I864J2638*
G01*
G75*
G02X73318I2776*
G01*
G75*
G02X71406Y66904I-2776*
G01*
X83076*
G75*
G02X85567I1246J-2480*
G01*
X115700*
G75*
G02X123967I4134*
G01*
X171723*
G75*
G02X174085Y71136I2363J1457*
G01*
G75*
G02X176448Y66904J-2776*
G01*
X197707*
Y73872*
X122644*
G75*
G02X117023I-2811J3031*
G01*
X96152*
G75*
G02X90601I-2776*
G01*
X72499*
G75*
G02X68585I-1957J1969*
G01*
X62644*
G75*
G02X57023I-2811J3031*
G01*
X857*
Y66904*
X55700*
G37*
Y86904D02*
G36*
G75*
G02X63967I4134D01*
G01*
X76237*
G75*
G02X77629Y87278I1391J-2402*
G01*
G75*
G02X79020Y86904J-2776*
G01*
X105700*
G75*
G02X113967I4134*
G01*
X115700*
G75*
G02X123967I4134*
G01*
X177458*
G75*
G02X177856Y91443I3635J1969*
G01*
X158405*
G75*
G02X154333I-2036J1887*
G01*
X23525*
G75*
G02X21181I-1172J3964*
G01*
X13525*
G75*
G02X11181I-1172J3964*
G01*
X857*
Y86904*
X55700*
G37*
X187458D02*
G36*
G75*
G02X187132Y87691I3635J1968D01*
G01*
X188387*
G75*
G03X188893Y86904I2706J1181*
G01*
X193294*
G75*
G03X193800Y87691I-2200J1969*
G01*
X195055*
G75*
G02X194728Y86904I-3961J1181*
G01*
X197707*
Y91443*
X194330*
G75*
G02X195055Y90053I-3237J-2572*
G01*
X193800*
G75*
G03X192545Y91443I-2706J-1181*
G01*
X189642*
G75*
G03X188387Y90053I1452J-2571*
G01*
X187132*
G75*
G02X187857Y91443I3961J-1181*
G01*
X184330*
G75*
G02X184728Y86904I-3237J-2571*
G01*
X187458*
G37*
X857Y115604D02*
G36*
Y111443D01*
X64840*
G75*
G02X69157I2159J-1744*
G01*
X176959*
Y113006*
X185227*
Y111443*
X187857*
G75*
G02X189912Y112833I3237J-2571*
G01*
Y111578*
G75*
G03X189642Y111443I1182J-2706*
G01*
X192545*
G75*
G03X192274Y111578I-1452J-2570*
G01*
Y112833*
G75*
G02X194330Y111443I-1181J-3961*
G01*
X197707*
Y115604*
X133864*
G75*
G02X133204I-330J2756*
G01*
X123758*
G75*
G02X115909I-3924J1299*
G01*
X74893*
G75*
G02X69341I-2776*
G01*
X63758*
G75*
G02X55909I-3924J1299*
G01*
X857*
G37*
X80854Y188439D02*
G36*
G75*
G02X79760Y190014I2287J2756D01*
G01*
X81051*
G75*
G03X81959Y189106I2089J1181*
G01*
Y188439*
X84322*
Y189106*
G75*
G03X85230Y190014I-1181J2089*
G01*
X86521*
G75*
G02X85427Y188439I-3381J1181*
G01*
X108796*
G75*
G02X108982Y188636I2693J-2361*
G01*
G75*
G02X107906Y191195I2505J2559*
G01*
G75*
G02X108726Y193476I3581*
G01*
X85902*
G75*
G02X86521Y192376I-2761J-2280*
G01*
X85230*
G75*
G03X84322Y193284I-2089J-1181*
G01*
Y193476*
X81959*
Y193284*
G75*
G03X81051Y192376I1181J-2089*
G01*
X79760*
G75*
G02X80380Y193476I3381J-1181*
G01*
X857*
Y188439*
X80854*
G37*
X151054D02*
G36*
Y188793D01*
X159322*
Y188439*
X197707*
Y193476*
X114248*
G75*
G02X115068Y191195I-2761J-2281*
G01*
G75*
G02X113992Y188636I-3581*
G01*
G75*
G02X114179Y188439I-2504J-2560*
G01*
X151054*
G37*
X80380Y193476D02*
G36*
G75*
G02X81959Y194576I2761J-2281D01*
G01*
Y193476*
X84322*
Y194576*
G75*
G02X85902Y193476I-1181J-3381*
G01*
X108726*
G75*
G02X114248I2761J-2281*
G01*
X197707*
Y197100*
X857*
Y193476*
X80380*
G37*
X857Y160405D02*
G36*
Y158993D01*
X91797*
G75*
G02X91177Y160093I2761J2281*
G01*
X92469*
G75*
G03X93377Y159184I2089J1181*
G01*
Y158993*
X95739*
Y159184*
G75*
G03X96647Y160093I-1181J2089*
G01*
X97939*
G75*
G02X97319Y158993I-3381J1181*
G01*
X106795*
G75*
G02X106725Y159699I3510J707*
G01*
G75*
G02X106795Y160405I3581J1*
G01*
X90626*
G75*
G02X91246Y159305I-2761J-2280*
G01*
X89954*
G75*
G03X89046Y160213I-2089J-1181*
G01*
Y160405*
X86684*
Y160213*
G75*
G03X85776Y159305I1181J-2089*
G01*
X84484*
G75*
G02X85104Y160405I3381J-1181*
G01*
X857*
G37*
X85104D02*
G36*
G75*
G02X86684Y161505I2761J-2281D01*
G01*
Y160405*
X89046*
Y161505*
G75*
G02X90626Y160405I-1181J-3381*
G01*
X106795*
G75*
G02X107612Y162058I3511J-706*
G01*
X857*
Y160405*
X85104*
G37*
X113817D02*
G36*
G75*
G02X113887Y159699I-3511J-705D01*
G01*
G75*
G02X113817Y158993I-3581J1*
G01*
X123293*
G75*
G02X122580Y160405I2761J2281*
G01*
X113817*
G37*
X122580D02*
G36*
G75*
G02X122473Y161274I3474J869D01*
G01*
G75*
G02X122560Y162058I3581J0*
G01*
X113000*
G75*
G02X113817Y160405I-2694J-2359*
G01*
X122580*
G37*
X141339D02*
G36*
G75*
G02X140626Y158993I-3474J869D01*
G01*
X197707*
Y160405*
X141339*
G37*
X197707D02*
G36*
Y162058D01*
X194330*
G75*
G02X192274Y160668I-3237J2571*
G01*
Y161923*
G75*
G03X192545Y162058I-1182J2706*
G01*
X189642*
G75*
G03X189912Y161923I1452J2570*
G01*
Y160668*
G75*
G02X187857Y162058I1181J3961*
G01*
X184330*
G75*
G02X177856I-3237J2571*
G01*
X175227*
Y160495*
X166959*
Y162058*
X141359*
G75*
G02X141446Y161274I-3494J-785*
G01*
G75*
G02X141339Y160405I-3581J0*
G01*
X197707*
G37*
X857Y158993D02*
G36*
Y157200D01*
X10223*
G75*
G02X13539I1658J-2226*
G01*
X101329*
G75*
G02X103535I1103J-3407*
G01*
X107740*
G75*
G02X106795Y158993I2566J2498*
G01*
X97319*
G75*
G02X95739Y157893I-2761J2281*
G01*
Y158993*
X93377*
Y157893*
G75*
G02X91797Y158993I1181J3381*
G01*
X857*
G37*
X113817D02*
G36*
G75*
G02X112872Y157200I-3511J706D01*
G01*
X166959*
Y158763*
X175227*
Y157200*
X177856*
G75*
G02X184330I3237J-2571*
G01*
X187857*
G75*
G02X189912Y158591I3237J-2571*
G01*
Y157335*
G75*
G03X189642Y157200I1182J-2706*
G01*
X192545*
G75*
G03X192274Y157335I-1452J-2570*
G01*
Y158591*
G75*
G02X194330Y157200I-1181J-3961*
G01*
X197707*
Y158993*
X140626*
G75*
G02X134912Y159247I-2761J2281*
G01*
G75*
G02X129007I-2953J2026*
G01*
G75*
G02X123293Y158993I-2953J2026*
G01*
X113817*
G37*
X857Y166079D02*
G36*
Y163554D01*
X91797*
G75*
G02X93377Y164654I2761J-2281*
G01*
Y163554*
X95739*
Y164654*
G75*
G02X97319Y163554I-1181J-3381*
G01*
X123293*
G75*
G02X129007Y163300I2761J-2281*
G01*
G75*
G02X134912I2953J-2026*
G01*
G75*
G02X140626Y163554I2953J-2026*
G01*
X166959*
Y166079*
X97319*
G75*
G02X95739Y164980I-2761J2281*
G01*
Y166079*
X93377*
Y164980*
G75*
G02X91797Y166079I1181J3381*
G01*
X857*
G37*
X91797D02*
G36*
G75*
G02X91177Y167179I2761J2281D01*
G01*
X92469*
G75*
G03X93377Y166271I2089J1181*
G01*
Y166079*
X95739*
Y166271*
G75*
G03X96647Y167179I-1181J2089*
G01*
X97939*
G75*
G02X97319Y166079I-3381J1181*
G01*
X166959*
Y168763*
X175227*
Y166079*
X177222*
G75*
G02X184965I3871J-1450*
G01*
X187222*
G75*
G02X189912Y168591I3871J-1450*
G01*
Y167335*
G75*
G03X188521Y166079I1181J-2706*
G01*
X193665*
G75*
G03X192274Y167335I-2572J-1450*
G01*
Y168591*
G75*
G02X194965Y166079I-1181J-3961*
G01*
X197707*
Y170641*
X182181*
G75*
G02X180006I-1088J3988*
G01*
X175227*
Y170495*
X166959*
Y170641*
X156157*
G75*
G02X155188Y170526I-970J4019*
G01*
G75*
G02X154218Y170641J4134*
G01*
X97319*
G75*
G02X97939Y169541I-2761J-2280*
G01*
X96647*
G75*
G03X95739Y170450I-2089J-1181*
G01*
Y170641*
X93377*
Y170450*
G75*
G03X92469Y169541I1181J-2089*
G01*
X91177*
G75*
G02X91797Y170641I3381J-1181*
G01*
X857*
Y166079*
X91797*
G37*
X175227D02*
G36*
Y163554D01*
X177102*
G75*
G02X176959Y164629I3992J1075*
G01*
G75*
G02X177222Y166079I4134*
G01*
X175227*
G37*
X184965D02*
G36*
G75*
G02X185227Y164629I-3871J-1450D01*
G01*
G75*
G02X185085Y163554I-4134*
G01*
X197707*
Y166079*
X194965*
G75*
G02X195055Y165810I-3873J-1448*
G01*
X193800*
G75*
G03X193665Y166079I-2705J-1183*
G01*
X188521*
G75*
G03X188387Y165810I2571J-1452*
G01*
X187132*
G75*
G02X187222Y166079I3963J-1179*
G01*
X184965*
G37*
X857Y163554D02*
G36*
Y162058D01*
X107612*
G75*
G02X113000I2694J-2359*
G01*
X122560*
G75*
G02X123293Y163554I3494J-784*
G01*
X97319*
G75*
G02X97939Y162455I-2761J-2280*
G01*
X96647*
G75*
G03X95739Y163363I-2089J-1181*
G01*
Y163554*
X93377*
Y163363*
G75*
G03X92469Y162455I1181J-2089*
G01*
X91177*
G75*
G02X91797Y163554I3381J-1181*
G01*
X857*
G37*
X140626D02*
G36*
G75*
G02X141359Y162058I-2761J-2280D01*
G01*
X166959*
Y163554*
X140626*
G37*
X175227D02*
G36*
Y162058D01*
X177856*
G75*
G02X177102Y163554I3237J2571*
G01*
X175227*
G37*
X185085D02*
G36*
G75*
G02X184330Y162058I-3992J1075D01*
G01*
X187857*
G75*
G02X187132Y163448I3237J2572*
G01*
X188387*
G75*
G03X189642Y162058I2706J1181*
G01*
X192545*
G75*
G03X193800Y163448I-1452J2571*
G01*
X195055*
G75*
G02X194330Y162058I-3961J1181*
G01*
X197707*
Y163554*
X185085*
G37*
X91797Y170641D02*
G36*
G75*
G02X93377Y171741I2761J-2281D01*
G01*
Y170641*
X95739*
Y171741*
G75*
G02X97319Y170641I-1181J-3381*
G01*
X154218*
G75*
G02X151975Y172058I970J4019*
G01*
X857*
Y170641*
X91797*
G37*
X166959D02*
G36*
Y172058D01*
X158400*
G75*
G02X156157Y170641I-3213J2602*
G01*
X166959*
G37*
X180006D02*
G36*
G75*
G02X177856Y172058I1088J3988D01*
G01*
X175227*
Y170641*
X180006*
G37*
X197707D02*
G36*
Y172058D01*
X194330*
G75*
G02X192274Y170668I-3237J2571*
G01*
Y171923*
G75*
G03X192545Y172058I-1182J2706*
G01*
X189642*
G75*
G03X189912Y171923I1452J2570*
G01*
Y170668*
G75*
G02X187857Y172058I1181J3961*
G01*
X184330*
G75*
G02X182181Y170641I-3237J2571*
G01*
X197707*
G37*
X857Y146707D02*
G36*
Y142058D01*
X125333*
G75*
G02X123278Y144738I721J2680*
G01*
G75*
G02X124097Y146707I2776*
G01*
X111919*
G75*
G02X104756I-3581*
G01*
X857*
G37*
X104756D02*
G36*
G75*
G02X111919I3581D01*
G01*
X124097*
G75*
G02X128011I1957J-1969*
G01*
X166959*
Y148763*
X175227*
Y146707*
X177519*
G75*
G02X184667I3574J-2078*
G01*
X187520*
G75*
G02X189912Y148591I3574J-2078*
G01*
Y147335*
G75*
G03X188995Y146707I1181J-2706*
G01*
X193192*
G75*
G03X192274Y147335I-2098J-2078*
G01*
Y148591*
G75*
G02X194667Y146707I-1181J-3961*
G01*
X197707*
Y152058*
X194330*
G75*
G02X192274Y150668I-3237J2571*
G01*
Y151923*
G75*
G03X192545Y152058I-1182J2706*
G01*
X189642*
G75*
G03X189912Y151923I1452J2570*
G01*
Y150668*
G75*
G02X187857Y152058I1181J3961*
G01*
X184330*
G75*
G02X177856I-3237J2571*
G01*
X175227*
Y150495*
X166959*
Y152058*
X105565*
G75*
G02X99299I-3133J1735*
G01*
X857*
Y146707*
X104756*
G37*
X128011D02*
G36*
G75*
G02X128830Y144738I-1957J-1969D01*
G01*
G75*
G02X126775Y142058I-2776*
G01*
X166959*
Y146707*
X128011*
G37*
X175227D02*
G36*
Y142058D01*
X177856*
G75*
G02X176959Y144629I3237J2571*
G01*
G75*
G02X177519Y146707I4134J0*
G01*
X175227*
G37*
X184667D02*
G36*
G75*
G02X185227Y144629I-3574J-2077D01*
G01*
G75*
G02X184330Y142058I-4134*
G01*
X187857*
G75*
G02X187132Y143448I3237J2572*
G01*
X188387*
G75*
G03X189642Y142058I2706J1181*
G01*
X192545*
G75*
G03X193800Y143448I-1452J2571*
G01*
X195055*
G75*
G02X194330Y142058I-3961J1181*
G01*
X197707*
Y146707*
X194667*
G75*
G02X195055Y145810I-3574J-2078*
G01*
X193800*
G75*
G03X193192Y146707I-2706J-1181*
G01*
X188995*
G75*
G03X188387Y145810I2098J-2077*
G01*
X187132*
G75*
G02X187520Y146707I3961J-1181*
G01*
X184667*
G37*
X857Y129475D02*
G36*
Y127200D01*
X55710*
G75*
G02X56596Y129475I4123J-297*
G01*
X857*
G37*
X56596D02*
G36*
G75*
G02X63070I3237J-2571D01*
G01*
X106596*
G75*
G02X113070I3237J-2571*
G01*
X116597*
G75*
G02X118652Y130865I3237J-2571*
G01*
Y129610*
G75*
G03X118382Y129475I1182J-2706*
G01*
X121285*
G75*
G03X121015Y129610I-1452J-2570*
G01*
Y130865*
G75*
G02X123070Y129475I-1181J-3961*
G01*
X139643*
G75*
G02X139420Y130565I2552J1091*
G01*
G75*
G02X139856Y132058I2776*
G01*
X857*
Y129475*
X56596*
G37*
X63070D02*
G36*
G75*
G02X63957Y127200I-3237J-2571D01*
G01*
X105710*
G75*
G02X106596Y129475I4123J-297*
G01*
X63070*
G37*
X113070D02*
G36*
G75*
G02X113957Y127200I-3237J-2571D01*
G01*
X144228*
G75*
G02X146462I1117J-2541*
G01*
X166959*
Y128763*
X175227*
Y127200*
X177856*
G75*
G02X184330I3237J-2571*
G01*
X187857*
G75*
G02X189912Y128591I3237J-2571*
G01*
Y127335*
G75*
G03X189642Y127200I1182J-2706*
G01*
X192545*
G75*
G03X192274Y127335I-1452J-2570*
G01*
Y128591*
G75*
G02X194330Y127200I-1181J-3961*
G01*
X197707*
Y129475*
X144748*
G75*
G02X139643I-2552J1090*
G01*
X123070*
G75*
G02X123795Y128085I-3237J-2572*
G01*
X122540*
G75*
G03X121285Y129475I-2706J-1181*
G01*
X118382*
G75*
G03X117127Y128085I1452J-2571*
G01*
X115872*
G75*
G02X116597Y129475I3961J-1181*
G01*
X113070*
G37*
X197707D02*
G36*
Y132058D01*
X194330*
G75*
G02X192274Y130668I-3237J2571*
G01*
Y131923*
G75*
G03X192545Y132058I-1182J2706*
G01*
X189642*
G75*
G03X189912Y131923I1452J2570*
G01*
Y130668*
G75*
G02X187857Y132058I1181J3961*
G01*
X184330*
G75*
G02X177856I-3237J2571*
G01*
X175227*
Y130495*
X166959*
Y132058*
X144535*
G75*
G02X144971Y130565I-2340J-1493*
G01*
G75*
G02X144748Y129475I-2776J0*
G01*
X197707*
G37*
X151975Y172058D02*
G36*
G75*
G02X151927Y177200I3213J2602D01*
G01*
X857*
Y172058*
X151975*
G37*
X166959D02*
G36*
Y177200D01*
X158448*
G75*
G02X158400Y172058I-3261J-2541*
G01*
X166959*
G37*
X177856D02*
G36*
G75*
G02X176959Y174629I3237J2571D01*
G01*
G75*
G02X177856Y177200I4134*
G01*
X175227*
Y172058*
X177856*
G37*
X187857D02*
G36*
G75*
G02X187132Y173448I3237J2572D01*
G01*
X188387*
G75*
G03X189642Y172058I2706J1181*
G01*
X192545*
G75*
G03X193800Y173448I-1452J2571*
G01*
X195055*
G75*
G02X194330Y172058I-3961J1181*
G01*
X197707*
Y177200*
X194330*
G75*
G02X195055Y175810I-3237J-2572*
G01*
X193800*
G75*
G03X192545Y177200I-2706J-1181*
G01*
X189642*
G75*
G03X188387Y175810I1452J-2571*
G01*
X187132*
G75*
G02X187857Y177200I3961J-1181*
G01*
X184330*
G75*
G02X185227Y174629I-3237J-2571*
G01*
G75*
G02X184330Y172058I-4134*
G01*
X187857*
G37*
X0Y0D02*
M02*
